<svg width="79" height="23" viewBox="0 0 79 23" fill="none" xmlns="http://www.w3.org/2000/svg">
<g clip-path="url(#clip0_2090_348)">
<path d="M20.4679 9.02168C20.7144 8.27934 20.7997 7.49294 20.718 6.71501C20.6363 5.93708 20.3895 5.18555 19.9942 4.5106C19.4081 3.49042 18.5131 2.68272 17.4384 2.20395C16.3637 1.72517 15.1647 1.60006 14.0142 1.84665C13.3607 1.11963 12.5273 0.577386 11.5978 0.274376C10.6683 -0.0286344 9.67551 -0.081742 8.71902 0.120387C7.76253 0.322516 6.87607 0.772764 6.14866 1.42591C5.42125 2.07906 4.8785 2.91211 4.57494 3.8414C3.80851 3.99856 3.08446 4.3175 2.45117 4.7769C1.81788 5.2363 1.28994 5.82558 0.902631 6.50535C0.310163 7.52383 0.0569459 8.70434 0.179589 9.87621C0.302231 11.0481 0.794379 12.1506 1.58488 13.0243C1.33747 13.7663 1.25136 14.5526 1.33231 15.3305C1.41326 16.1085 1.65941 16.8602 2.05429 17.5353C2.64113 18.5559 3.53684 19.3637 4.61233 19.8425C5.68783 20.3213 6.88756 20.4462 8.03863 20.1994C8.55788 20.7841 9.19591 21.2513 9.91011 21.5699C10.6243 21.8884 11.3982 22.0509 12.1802 22.0465C13.3594 22.0476 14.5084 21.6739 15.4614 20.9795C16.4144 20.2851 17.122 19.3058 17.4823 18.183C18.2486 18.0256 18.9725 17.7065 19.6058 17.2471C20.239 16.7877 20.767 16.1986 21.1546 15.519C21.74 14.502 21.9889 13.3259 21.8656 12.1589C21.7422 10.992 21.253 9.89382 20.4679 9.02168ZM12.1802 20.6035C11.2145 20.6051 10.2791 20.2666 9.53797 19.6475L9.66832 19.5736L14.0577 17.0399C14.1669 16.9758 14.2576 16.8845 14.3209 16.7747C14.3841 16.665 14.4177 16.5407 14.4184 16.4141V10.2255L16.274 11.299C16.2832 11.3036 16.2911 11.3104 16.2972 11.3187C16.3033 11.327 16.3073 11.3366 16.3089 11.3468V16.475C16.3066 17.5692 15.8709 18.618 15.0971 19.3918C14.3233 20.1655 13.2745 20.6012 12.1802 20.6035ZM3.30588 16.8139C2.82157 15.9777 2.64768 14.9974 2.8148 14.0455L2.94524 14.1238L7.33893 16.6575C7.44764 16.7213 7.57141 16.7549 7.69746 16.7549C7.82351 16.7549 7.94727 16.7213 8.05599 16.6575L13.4232 13.5632V15.7057C13.4227 15.7168 13.4197 15.7277 13.4144 15.7375C13.4091 15.7472 13.4017 15.7557 13.3927 15.7622L8.94685 18.3263C7.99805 18.8729 6.87112 19.0206 5.8135 18.7371C4.75588 18.4535 3.854 17.7618 3.30588 16.8139ZM2.14991 7.25291C2.63758 6.41126 3.40733 5.7693 4.32287 5.44069V10.6558C4.32122 10.7818 4.35341 10.9059 4.41609 11.0152C4.47876 11.1245 4.56963 11.215 4.6792 11.2772L10.0203 14.3585L8.16466 15.4319C8.15462 15.4372 8.14342 15.44 8.13205 15.44C8.12068 15.44 8.10948 15.4372 8.09944 15.4319L3.6623 12.8722C2.71528 12.3233 2.02438 11.4214 1.74092 10.3641C1.45745 9.30683 1.60452 8.18031 2.14991 7.23123V7.25291ZM17.3953 10.7949L12.0369 7.68319L13.8882 6.61393C13.8983 6.6086 13.9094 6.60581 13.9208 6.60581C13.9322 6.60581 13.9434 6.6086 13.9534 6.61393L18.3906 9.17803C19.069 9.5695 19.6221 10.1459 19.9852 10.8399C20.3484 11.5339 20.5066 12.3169 20.4414 13.0974C20.3763 13.878 20.0904 14.6239 19.6172 15.2481C19.1441 15.8723 18.5031 16.349 17.7691 16.6226V11.4075C17.7653 11.2817 17.7288 11.1591 17.6632 11.0517C17.5977 10.9443 17.5054 10.8558 17.3953 10.7949ZM19.2424 8.01783L19.1119 7.93957L14.727 5.38419C14.6176 5.32001 14.4931 5.28617 14.3663 5.28617C14.2394 5.28617 14.1149 5.32001 14.0055 5.38419L8.64279 8.47842V6.33596C8.64165 6.32507 8.64347 6.31407 8.64806 6.30412C8.65266 6.29418 8.65985 6.28566 8.66888 6.27947L13.106 3.71968C13.7861 3.32791 14.5636 3.13787 15.3477 3.17179C16.1318 3.2057 16.89 3.46217 17.5337 3.9112C18.1774 4.36022 18.6799 4.98324 18.9825 5.70739C19.2851 6.43154 19.3753 7.22687 19.2425 8.00038L19.2424 8.01783ZM7.63003 11.816L5.77445 10.7469C5.76517 10.7413 5.75723 10.7338 5.75119 10.7248C5.74516 10.7158 5.74118 10.7055 5.73954 10.6948V5.57977C5.74056 4.79507 5.96495 4.02688 6.38647 3.36501C6.80799 2.70314 7.40922 2.17495 8.11987 1.84218C8.83052 1.50942 9.62121 1.38584 10.3995 1.48589C11.1778 1.58595 11.9115 1.9055 12.5149 2.40718L12.3845 2.48113L7.99518 5.01464C7.88593 5.07871 7.79523 5.1701 7.73199 5.27982C7.66874 5.38955 7.63513 5.51384 7.63444 5.64048L7.63003 11.816ZM8.63829 9.64312L11.0285 8.2654L13.4232 9.64312V12.3984L11.0372 13.776L8.6427 12.3984L8.63829 9.64312Z" fill="black"/>
</g>
<g clip-path="url(#clip1_2090_348)">
<path fill-rule="evenodd" clip-rule="evenodd" d="M28.7832 10.3834C28.7832 13.6144 30.8507 15.8674 33.7155 15.8674C36.5803 15.8674 38.6478 13.6144 38.6478 10.3834C38.6478 7.15232 36.5803 4.89929 33.7155 4.89929C30.8795 4.89929 28.8248 7.10762 28.7832 10.2866V10.3834ZM36.7573 10.3834C36.7573 12.6952 35.5019 14.1925 33.7155 14.1925C31.9285 14.1925 30.6731 12.6952 30.6731 10.3834C30.6731 8.07093 31.9285 6.57421 33.7155 6.57421C35.5019 6.57421 36.7573 8.07093 36.7573 10.3834ZM43.9702 15.8674C46.1412 15.8674 47.3813 14.0296 47.3813 11.8213C47.3813 9.61235 46.1412 7.77452 43.9702 7.77452C42.9658 7.77452 42.2279 8.17504 41.741 8.75315V7.92273H39.9687V18.3722H41.7404V14.8888C42.2279 15.4669 42.9665 15.8674 43.9702 15.8674ZM41.6963 11.599C41.6963 10.1311 42.5231 9.33125 43.6162 9.33125C44.9004 9.33125 45.5943 10.3387 45.5943 11.8213C45.5943 13.3033 44.9004 14.3113 43.6162 14.3113C42.5231 14.3113 41.6963 13.4956 41.6963 12.0577V11.599ZM52.177 15.8674C53.7276 15.8674 54.953 15.0523 55.4993 13.6885L53.9787 13.1104C53.7423 13.9108 53.0478 14.3554 52.177 14.3554C51.0398 14.3554 50.2424 13.5403 50.1095 12.2059H55.544V11.6137C55.544 9.47945 54.348 7.77452 52.1029 7.77452C49.8584 7.77452 48.4113 9.53825 48.4113 11.8213C48.4113 14.2219 49.9613 15.8674 52.177 15.8674ZM52.0882 9.27185C53.2107 9.27185 53.7423 10.0129 53.757 10.8727H50.1989C50.4647 9.81995 51.1727 9.27185 52.0882 9.27185ZM56.8735 15.7045H58.6458V11.1391C58.6458 10.0276 59.4579 9.43475 60.2552 9.43475C61.2295 9.43475 61.6135 10.1311 61.6135 11.0944V15.7045H63.3858V10.5763C63.3858 8.90135 62.4109 7.77452 60.7868 7.77452C59.7824 7.77452 59.0886 8.23383 58.6458 8.75315V7.92273H56.8735V15.7045ZM68.5759 5.06219L64.5586 15.7045H66.4344L67.3352 13.2733H71.9129L72.8285 15.7045H74.733L70.7175 5.06219H68.5759ZM69.6091 7.16702L71.2932 11.6131H67.9556L69.6091 7.16702ZM77.7755 5.09342H75.8856V15.7352H77.7755V5.09342Z" fill="black"/>
</g>
<defs>
<clipPath id="clip0_2090_348">
<rect width="22.0465" height="22.0465" fill="white"/>
</clipPath>
<clipPath id="clip1_2090_348">
<rect width="51.4419" height="14.6977" fill="white" transform="translate(27.5586 3.67444)"/>
</clipPath>
</defs>
</svg>
