<svg width="51" height="43" viewBox="0 0 51 43" fill="none" xmlns="http://www.w3.org/2000/svg">
<path d="M30.0547 34.1383C30.1426 35.0611 30.1984 35.9861 30.2825 36.9092C30.3429 37.5724 30.4239 38.2887 30.8207 38.8495C31.2332 39.4323 31.8702 39.7033 32.5532 39.8466C32.7028 39.8681 32.8467 39.919 32.9763 39.9963C33.0262 40.0352 33.0682 40.0833 33.0997 40.138C33.1239 40.1711 33.1364 40.2543 33.1082 40.1473C33.115 40.1732 33.124 40.1984 33.1296 40.2244C33.1369 40.2559 33.1423 40.2866 33.147 40.3178C33.1354 40.2425 33.147 40.3234 33.1481 40.3423C33.1527 40.4151 33.1575 40.4876 33.157 40.5607C33.16 40.6882 33.145 40.8154 33.1123 40.9387C33.1032 40.9775 33.1013 41.0345 33.0721 41.0356L33.0971 41.0071L33.078 41.0279L33.1136 41.003C33.0774 41.024 33.0839 41.0218 33.1332 40.9964C33.1789 40.9649 33.1808 40.9918 33.1199 40.9892C33.0476 40.9858 32.9743 40.9892 32.9019 40.9892H32.1108H29.493L22.4868 40.9876H19.4733C18.8967 40.9876 18.3175 40.9718 17.7411 40.9876C17.6814 40.9891 17.6511 40.9628 17.7104 40.9948C17.7568 41.0199 17.755 40.9959 17.7687 41.0344C17.7584 41.0054 17.7344 40.9769 17.7211 40.9482C17.7485 41.0098 17.7138 40.9167 17.7098 40.9019C17.676 40.7912 17.6579 40.6763 17.6562 40.5607C17.6532 40.4944 17.6527 40.4279 17.6562 40.3616C17.6578 40.3249 17.6606 40.2885 17.6638 40.2521C17.6722 40.1555 17.6495 40.3033 17.6687 40.2253C17.6757 40.1968 17.72 40.095 17.6857 40.158C17.7119 40.1002 17.7522 40.0498 17.8029 40.0114C17.9531 39.9168 18.1227 39.8569 18.2992 39.8361C18.6513 39.7703 18.9901 39.6475 19.3021 39.4725C19.5691 39.306 19.7997 39.0882 19.9805 38.8317C20.1612 38.5753 20.2884 38.2855 20.3544 37.9794C20.4392 37.6033 20.4945 37.2213 20.5199 36.8367C20.5624 36.381 20.6151 35.9265 20.641 35.4694C20.6655 35.0249 20.6989 34.5812 20.7411 34.1383C20.7404 34.0382 20.7 33.9425 20.6288 33.8717C20.5575 33.801 20.4611 33.7609 20.3603 33.7602C20.26 33.7623 20.1644 33.8028 20.0934 33.8733C20.0224 33.9437 19.9816 34.0387 19.9795 34.1383C19.8894 35.086 19.8321 36.0359 19.7452 36.984C19.7219 37.3169 19.662 37.6463 19.5666 37.9664C19.4973 38.209 19.368 38.4305 19.1904 38.6108C19.111 38.6942 19.0188 38.7646 18.9172 38.8194C18.7738 38.9041 18.6201 38.9702 18.4598 39.016C18.0473 39.142 17.6211 39.1685 17.281 39.4615C16.8077 39.8694 16.8007 40.6618 17.0112 41.2072C17.1293 41.5126 17.3412 41.7313 17.6852 41.7428C17.7682 41.7456 17.8516 41.7428 17.9346 41.7428H18.7899H21.5518L28.7897 41.7443H31.7126C32.1964 41.7443 32.6845 41.7637 33.1678 41.7443C33.8786 41.7163 33.9611 40.8253 33.904 40.2855C33.8962 40.1216 33.8544 39.9612 33.7812 39.8142C33.7079 39.6672 33.6049 39.5368 33.4785 39.4312C33.1294 39.1524 32.6983 39.1319 32.2885 38.9988C32.0206 38.9204 31.7766 38.7769 31.5786 38.5813C31.4065 38.3942 31.2824 38.1686 31.2168 37.9237C31.1245 37.5916 31.0667 37.251 31.0444 36.9071C31.0018 36.4393 30.9457 35.9727 30.9189 35.5034C30.8927 35.0466 30.86 34.5917 30.8165 34.1362C30.8139 34.0368 30.773 33.9421 30.7021 33.8718C30.6313 33.8014 30.5359 33.7608 30.4358 33.7582C30.335 33.7589 30.2386 33.799 30.1673 33.8697C30.0961 33.9405 30.0557 34.0362 30.055 34.1362L30.0547 34.1383Z" fill="#232323" stroke="#232323" stroke-width="1.16844" stroke-linejoin="round"/>
<path d="M0.634794 4.15352C0.639554 6.70704 0.64553 9.26066 0.652722 11.8144C0.660866 14.9244 0.669117 18.0345 0.677473 21.1447C0.684982 23.9056 0.692175 26.6666 0.69905 29.4275L0.702858 31.0083C0.704444 31.7299 0.801066 32.4144 1.22547 33.0229C1.657 33.6515 2.31063 34.0963 3.05684 34.2689C3.54692 34.3765 4.05954 34.346 4.55867 34.3477C6.59116 34.3535 8.6237 34.3559 10.6563 34.3551C13.3006 34.3557 15.9451 34.3548 18.59 34.3523C21.5054 34.3492 24.4209 34.3458 27.3366 34.3419C30.1813 34.3381 33.026 34.3338 35.8707 34.329C38.3111 34.3249 40.7516 34.3206 43.192 34.3162L46.0439 34.3112C46.4691 34.3112 46.9006 34.3307 47.3253 34.3034C48.1002 34.2568 48.8282 33.9188 49.361 33.3583C49.8916 32.7869 50.1843 32.0371 50.1802 31.26C50.1819 30.7521 50.1802 30.2443 50.1802 29.7364C50.1796 28.4978 50.1789 27.2592 50.1781 26.0205L50.171 17.0197C50.1693 14.1153 50.1674 11.211 50.1654 8.30673C50.1648 7.16613 50.1641 6.02552 50.1634 4.88492C50.1634 4.27687 50.1918 3.66661 49.9654 3.08911C49.6923 2.3788 49.1599 1.79664 48.474 1.45855C47.5144 0.999986 46.348 1.1479 45.3091 1.14775H42.1808L34.5039 1.14649L25.768 1.14491L17.0075 1.14334L9.25727 1.14097H6.07368H4.70638C4.27214 1.14097 3.82489 1.11215 3.39239 1.15436C2.64152 1.22957 1.94498 1.57715 1.43615 2.13054C0.927333 2.68393 0.641999 3.40424 0.634794 4.15352C0.6294 4.64012 1.39095 4.6406 1.39634 4.15352C1.39717 3.80992 1.47607 3.47093 1.62715 3.16181C1.77824 2.85268 1.99762 2.58138 2.26895 2.36811C2.773 1.9787 3.34337 1.89553 3.96133 1.89553H6.5882L13.5019 1.89679L21.7944 1.89821L30.541 1.89978L38.6948 1.9012L45.3299 1.9023H46.6258C47.2003 1.9023 47.744 1.90451 48.26 2.19877C48.5566 2.3687 48.8111 2.60249 49.0047 2.88296C49.1983 3.16342 49.3262 3.48342 49.3788 3.81941C49.4539 4.30491 49.4018 4.83278 49.4021 5.32348C49.4036 7.87027 49.4052 10.417 49.4069 12.9635L49.4126 22.0229C49.4142 24.642 49.4158 27.261 49.4174 29.8799C49.4174 30.3964 49.4402 30.9196 49.4147 31.4349C49.395 31.7651 49.3023 32.0869 49.1433 32.3775C48.9843 32.6682 48.7627 32.9205 48.4945 33.1166C47.6647 33.7174 46.5389 33.5525 45.5671 33.5542L39.1818 33.5656C36.5231 33.5702 33.8644 33.5746 31.2057 33.5787C28.3331 33.583 25.4605 33.5867 22.588 33.59C19.8148 33.5931 17.0416 33.5953 14.2684 33.5965C11.9317 33.5974 9.59499 33.5968 7.2582 33.5946C6.35852 33.5934 5.45878 33.5917 4.55899 33.5894C4.11095 33.5881 3.63276 33.6303 3.19582 33.5232C2.86561 33.4416 2.55779 33.2882 2.29463 33.0741C2.03146 32.8599 1.81952 32.5903 1.67415 32.2849C1.41649 31.7435 1.46425 31.1507 1.46282 30.5686C1.46166 30.0346 1.46039 29.5005 1.45901 28.9664C1.45584 27.6692 1.45251 26.3723 1.44902 25.0755C1.44108 22.0523 1.43299 19.0293 1.42474 16.0063C1.41713 13.1374 1.40983 10.2684 1.40285 7.39937C1.4001 6.31779 1.39793 5.23584 1.39634 4.15352C1.3946 3.66692 0.633049 3.66613 0.634794 4.15352Z" fill="#232323"/>
<path d="M0.634794 4.15352C0.639554 6.70704 0.64553 9.26066 0.652722 11.8144C0.660866 14.9244 0.669117 18.0345 0.677473 21.1447C0.684982 23.9056 0.692175 26.6666 0.69905 29.4275L0.702858 31.0083C0.704444 31.7299 0.801066 32.4144 1.22547 33.0229C1.657 33.6515 2.31063 34.0963 3.05684 34.2689C3.54692 34.3765 4.05954 34.346 4.55867 34.3477C6.59116 34.3535 8.6237 34.3559 10.6563 34.3551C13.3006 34.3557 15.9451 34.3548 18.59 34.3523C21.5054 34.3492 24.4209 34.3458 27.3366 34.3419C30.1813 34.3381 33.026 34.3338 35.8707 34.329C38.3111 34.3249 40.7516 34.3206 43.192 34.3162L46.0439 34.3112C46.4691 34.3112 46.9006 34.3307 47.3253 34.3034C48.1002 34.2568 48.8282 33.9188 49.361 33.3583C49.8916 32.7869 50.1843 32.0371 50.1802 31.26C50.1819 30.7521 50.1802 30.2443 50.1802 29.7364C50.1796 28.4978 50.1789 27.2592 50.1781 26.0205L50.171 17.0197C50.1693 14.1153 50.1674 11.211 50.1654 8.30673C50.1648 7.16613 50.1641 6.02552 50.1634 4.88492C50.1634 4.27687 50.1918 3.66661 49.9654 3.08911C49.6923 2.3788 49.1599 1.79664 48.474 1.45855C47.5144 0.999986 46.348 1.1479 45.3091 1.14775H42.1808L34.5039 1.14649L25.768 1.14491L17.0075 1.14334L9.25727 1.14097H6.07368H4.70638C4.27214 1.14097 3.82489 1.11215 3.39239 1.15436C2.64152 1.22957 1.94498 1.57715 1.43615 2.13054C0.927333 2.68393 0.641999 3.40424 0.634794 4.15352ZM0.634794 4.15352C0.6294 4.64012 1.39095 4.6406 1.39634 4.15352M0.634794 4.15352C0.633049 3.66613 1.3946 3.66692 1.39634 4.15352M1.39634 4.15352C1.39717 3.80992 1.47607 3.47093 1.62715 3.16181C1.77824 2.85268 1.99762 2.58138 2.26895 2.36811C2.773 1.9787 3.34337 1.89553 3.96133 1.89553H6.5882L13.5019 1.89679L21.7944 1.89821L30.541 1.89978L38.6948 1.9012L45.3299 1.9023H46.6258C47.2003 1.9023 47.744 1.90451 48.26 2.19877C48.5566 2.3687 48.8111 2.60249 49.0047 2.88296C49.1983 3.16342 49.3262 3.48342 49.3788 3.81941C49.4539 4.30491 49.4018 4.83278 49.4021 5.32348C49.4036 7.87027 49.4052 10.417 49.4069 12.9635L49.4126 22.0229C49.4142 24.642 49.4158 27.261 49.4174 29.8799C49.4174 30.3964 49.4402 30.9196 49.4147 31.4349C49.395 31.7651 49.3023 32.0869 49.1433 32.3775C48.9843 32.6682 48.7627 32.9205 48.4945 33.1166C47.6647 33.7174 46.5389 33.5525 45.5671 33.5542L39.1818 33.5656C36.5231 33.5702 33.8644 33.5746 31.2057 33.5787C28.3331 33.583 25.4605 33.5867 22.588 33.59C19.8148 33.5931 17.0416 33.5953 14.2684 33.5965C11.9317 33.5974 9.59499 33.5968 7.2582 33.5946C6.35852 33.5934 5.45878 33.5917 4.55899 33.5894C4.11095 33.5881 3.63276 33.6303 3.19582 33.5232C2.86561 33.4416 2.55779 33.2882 2.29463 33.0741C2.03146 32.8599 1.81952 32.5903 1.67415 32.2849C1.41649 31.7435 1.46425 31.1507 1.46282 30.5686C1.46166 30.0346 1.46039 29.5005 1.45901 28.9664C1.45584 27.6692 1.45251 26.3723 1.44902 25.0755C1.44108 22.0523 1.43299 19.0293 1.42474 16.0063C1.41713 13.1374 1.40983 10.2684 1.40285 7.39937C1.4001 6.31779 1.39793 5.23584 1.39634 4.15352Z" stroke="#232323" stroke-width="1.16844"/>
<path d="M1.08064 29.4741C1.80104 29.4741 2.52139 29.4738 3.24169 29.473C4.58434 29.4721 5.92699 29.471 7.26964 29.4697C9.06848 29.4682 10.8673 29.4664 12.666 29.4645C14.7766 29.4624 16.8871 29.4602 18.9976 29.4578C21.2471 29.4551 23.4965 29.4524 25.7459 29.4494C27.9851 29.4464 30.2242 29.4432 32.4634 29.4398C34.5357 29.4366 36.6079 29.4331 38.68 29.4292C40.4287 29.426 42.1775 29.4222 43.9263 29.4179C45.1986 29.4145 46.4709 29.4105 47.7432 29.4058C48.3723 29.4033 49.0019 29.4048 49.6312 29.3935C49.6874 29.3925 49.7434 29.3907 49.7994 29.3907C50.2895 29.3907 50.2903 28.6345 49.7994 28.6345C49.3328 28.6345 48.8659 28.6443 48.3993 28.6467C47.2687 28.6523 46.1381 28.6564 45.0075 28.6588C43.3616 28.6633 41.7157 28.6672 40.0699 28.6704C38.0543 28.6743 36.0386 28.6779 34.0228 28.6812C31.8096 28.6848 29.5963 28.6881 27.3831 28.6911C25.1218 28.6941 22.8605 28.697 20.5993 28.6997L14.142 28.707L8.47987 28.7125C7.00966 28.7139 5.53945 28.7151 4.06924 28.7163C3.18457 28.7169 2.29991 28.7174 1.41524 28.7179H1.08064C0.590706 28.7179 0.589913 29.4741 1.08064 29.4741Z" fill="#232323" stroke="#232323" stroke-width="1.16844"/>
<path d="M26.4629 31.5537C26.4649 31.6882 26.439 31.8216 26.3866 31.9456C26.3343 32.0696 26.2567 32.1816 26.1588 32.2745C26.0608 32.3673 25.9446 32.4391 25.8174 32.4853C25.6902 32.5315 25.5548 32.5512 25.4196 32.543C24.7163 32.543 24.3536 32.0658 24.3536 31.5532C24.3517 31.4191 24.3769 31.2859 24.4278 31.1615C24.4786 31.0372 24.554 30.9242 24.6496 30.8293C24.7452 30.7344 24.8589 30.6595 24.9842 30.609C25.1094 30.5585 25.2435 30.5334 25.3787 30.5353C25.6576 30.5306 25.9273 30.6346 26.13 30.825C26.3327 31.0153 26.4522 31.2769 26.4629 31.5537Z" fill="#232323"/>
<path d="M11.8527 22.0779C11.8527 20.4289 11.8464 18.7799 11.8431 17.1315C11.8424 16.8912 11.8419 16.651 11.8416 16.4107L11.4609 16.7887H16.0301L15.6494 16.4107V22.0691C15.6494 22.5555 16.4109 22.5563 16.4109 22.0691V16.41C16.4095 16.3102 16.3689 16.2149 16.2978 16.1443C16.2267 16.0737 16.1307 16.0334 16.0301 16.032H11.4609C11.3603 16.0334 11.2643 16.0736 11.1931 16.1442C11.122 16.2148 11.0815 16.3102 11.0801 16.41C11.0801 17.9962 11.0867 19.5822 11.0898 21.1683C11.0904 21.4715 11.0909 21.7747 11.0912 22.0779C11.0912 22.5643 11.8527 22.5651 11.8527 22.0779Z" fill="#232323" stroke="#232323" stroke-width="1.16844" stroke-linejoin="bevel"/>
<path d="M19.4879 22.0622C19.4879 21.0259 19.4868 19.9898 19.4847 18.9537L19.4795 14.6259C19.4795 14.2754 19.4791 13.9249 19.4783 13.5746L19.0976 13.9527H23.6669L23.2861 13.5746V22.0527C23.2861 22.5392 24.0476 22.5399 24.0476 22.0527V13.5746C24.0462 13.4748 24.0056 13.3794 23.9345 13.3088C23.8634 13.2382 23.7674 13.198 23.6669 13.1965H19.0976C18.997 13.198 18.901 13.2382 18.8299 13.3088C18.7588 13.3794 18.7182 13.4748 18.7168 13.5746C18.7168 14.4949 18.7179 15.4152 18.72 16.3356C18.7218 17.8106 18.7235 19.2854 18.725 20.7602C18.725 21.1941 18.7255 21.6281 18.7263 22.0622C18.7263 22.5486 19.4879 22.5494 19.4879 22.0622Z" fill="#232323" stroke="#232323" stroke-width="1.16844" stroke-linejoin="bevel"/>
<path d="M27.1226 22.0449C27.1226 20.6586 27.1213 19.2724 27.1188 17.8862C27.1169 15.9637 27.1149 14.0412 27.1127 12.1186C27.1127 11.6587 27.1123 11.1989 27.1115 10.7391L26.7307 11.1172H31.2997L30.9189 10.7391V22.0338C30.9189 22.5203 31.6804 22.5211 31.6804 22.0338V10.7391C31.679 10.6393 31.6384 10.544 31.5673 10.4734C31.4962 10.4028 31.4002 10.3625 31.2997 10.3611H26.7304C26.6298 10.3625 26.5338 10.4028 26.4627 10.4734C26.3916 10.544 26.351 10.6393 26.3496 10.7391C26.3496 11.9663 26.3509 13.1934 26.3534 14.4206C26.3553 16.3874 26.3573 18.3544 26.3593 20.3215C26.3599 20.8959 26.3604 21.4703 26.3607 22.0449C26.3607 22.5313 27.1223 22.5321 27.1223 22.0449H27.1226Z" fill="#232323" stroke="#232323" stroke-width="1.16844" stroke-linejoin="bevel"/>
<path d="M34.7629 22.0276C34.7629 20.2941 34.7616 18.5605 34.7591 16.827C34.7572 14.4208 34.7552 12.0146 34.7531 9.60846C34.7531 9.0401 34.7526 8.47185 34.7518 7.9037L34.371 8.28176H38.9403L38.5595 7.9037V22.0166C38.5595 22.503 39.3211 22.5038 39.3211 22.0166V7.9037C39.3196 7.80387 39.2791 7.70854 39.208 7.63794C39.1369 7.56735 39.0408 7.52706 38.9403 7.52563H34.371C34.2705 7.52706 34.1744 7.56735 34.1033 7.63794C34.0322 7.70854 33.9917 7.80387 33.9902 7.9037C33.9902 9.42856 33.9915 10.9535 33.994 12.4784C33.9959 14.9429 33.9979 17.4074 33.9999 19.872C34.0005 20.5904 34.001 21.3089 34.0013 22.0276C34.0013 22.514 34.7629 22.5148 34.7629 22.0276Z" stroke="#232323" stroke-width="1.16844" stroke-linejoin="bevel"/>
<path d="M42.6848 21.6315C42.2006 21.6315 41.7165 21.6321 41.2323 21.6334C40.3604 21.6349 39.4884 21.6367 38.6164 21.6386C37.453 21.641 36.2901 21.6435 35.1279 21.6461L31.0029 21.6554L26.5299 21.6657L21.9802 21.6759L17.6264 21.6855C16.3369 21.6883 15.0472 21.691 13.7576 21.6935C12.7075 21.6957 11.6573 21.6977 10.607 21.6994C9.89347 21.7006 9.18004 21.7016 8.46673 21.7022H8.12958C7.63949 21.7022 7.6387 22.4583 8.12958 22.4583C8.74707 22.4583 9.36456 22.4577 9.98205 22.4564L12.9113 22.4512C14.1495 22.4489 15.3876 22.4464 16.6256 22.4437L20.8906 22.4344L25.4174 22.4241L29.9341 22.4138L34.1687 22.4041L37.8327 22.3961L40.6912 22.3903C41.2783 22.3891 41.8653 22.3882 42.4523 22.3876H42.6845C43.1746 22.3876 43.1754 21.6315 42.6845 21.6315H42.6848Z" fill="#232323" stroke="#232323" stroke-width="1.16844"/>
<path d="M20.7089 6.05725L18.8394 11.2903H17.2327L15.3633 6.05725H16.7297L18.0361 10.0081L19.35 6.05725H20.7089Z" fill="#232323"/>
<path d="M15.0929 7.74196C15.0929 8.04511 15.0228 8.32341 14.8827 8.57686C14.7425 8.82534 14.5273 9.02661 14.237 9.18067C13.9467 9.33473 13.5863 9.41176 13.1559 9.41176H12.36V11.2903H11.0762V6.05725H13.1559C13.5763 6.05725 13.9317 6.12931 14.222 6.27343C14.5123 6.41755 14.73 6.61634 14.8752 6.86979C15.0203 7.12324 15.0929 7.41396 15.0929 7.74196ZM13.0583 8.39795C13.3035 8.39795 13.4862 8.3408 13.6063 8.2265C13.7265 8.1122 13.7865 7.95068 13.7865 7.74196C13.7865 7.53323 13.7265 7.37172 13.6063 7.25742C13.4862 7.14312 13.3035 7.08597 13.0583 7.08597H12.36V8.39795H13.0583Z" fill="#232323"/>
<path d="M10.1524 6.05725V11.2903H8.86851V8.15195L7.68977 11.2903H6.65368L5.46744 8.1445V11.2903H4.18359V6.05725H5.70018L7.17924 9.68012L8.64327 6.05725H10.1524Z" fill="#232323"/>
</svg>
