<svg width="57" height="42" viewBox="0 0 57 42" fill="none" xmlns="http://www.w3.org/2000/svg">
<path d="M7.63953 18.3414C7.63953 8.48855 15.6374 0.68103 25.5924 0.68103C32.9983 0.68103 39.3177 4.99455 42.0734 11.2745L42.0966 11.3255L42.0989 11.3395C49.997 11.9291 56.1539 18.3135 56.1539 26.3021C56.1539 34.6877 49.3655 41.3089 40.9033 41.3089H12.0831C5.61278 41.3089 0.435631 36.2711 0.435631 29.8402C0.426803 27.5457 1.11207 25.3021 2.40146 23.4041C3.69084 21.506 5.52407 20.0423 7.66043 19.205C7.64677 18.9173 7.6398 18.6294 7.63953 18.3414ZM25.5924 4.16342C17.5017 4.16342 11.1219 10.4712 11.1219 18.3414C11.1219 19.0007 11.173 19.739 11.2426 20.0965C11.3268 20.5328 11.241 20.9848 11.0027 21.3598C10.7645 21.7349 10.3918 22.0047 9.96113 22.114C6.43231 23.0078 3.91802 26.0885 3.91802 29.8402C3.91802 34.2907 7.4747 37.8265 12.0831 37.8265H40.9033C47.5036 37.8265 52.6715 32.7051 52.6715 26.3021C52.6715 19.8992 47.5036 14.7754 40.9033 14.7754C40.5559 14.7755 40.2163 14.6717 39.9284 14.4772C39.6404 14.2828 39.4172 14.0066 39.2875 13.6843L38.8719 12.6488C36.6664 7.64581 31.6007 4.16342 25.5924 4.16342Z" fill="#232323"/>
<path d="M17.4503 25.2985C17.4168 24.9603 17.2729 24.6976 17.0185 24.5104C16.7642 24.3231 16.4191 24.2295 15.9831 24.2295C15.6869 24.2295 15.4368 24.2714 15.2328 24.3553C15.0288 24.4363 14.8723 24.5495 14.7633 24.6948C14.6571 24.8402 14.604 25.005 14.604 25.1895C14.5984 25.3432 14.6305 25.4773 14.7004 25.5919C14.773 25.7065 14.8723 25.8057 14.998 25.8895C15.1238 25.9706 15.2691 26.0418 15.434 26.1033C15.5989 26.162 15.7749 26.2123 15.9622 26.2542L16.7335 26.4387C17.108 26.5225 17.4517 26.6343 17.7647 26.774C18.0777 26.9138 18.3488 27.0856 18.578 27.2897C18.8071 27.4937 18.9846 27.734 19.1103 28.0107C19.2389 28.2873 19.3046 28.6045 19.3074 28.9623C19.3046 29.4876 19.1704 29.9432 18.9049 30.3288C18.6422 30.7117 18.2622 31.0093 17.7647 31.2217C17.2701 31.4313 16.6734 31.5361 15.9747 31.5361C15.2817 31.5361 14.678 31.4299 14.1638 31.2175C13.6524 31.0051 13.2528 30.6907 12.9649 30.2743C12.6799 29.8551 12.5303 29.3367 12.5164 28.7191H14.2728C14.2924 29.007 14.3748 29.2473 14.5201 29.4401C14.6683 29.6302 14.8653 29.7741 15.1112 29.8719C15.3599 29.9669 15.6408 30.0144 15.9538 30.0144C16.2612 30.0144 16.5281 29.9697 16.7545 29.8803C16.9836 29.7909 17.1611 29.6665 17.2868 29.5072C17.4126 29.3479 17.4755 29.1649 17.4755 28.9581C17.4755 28.7652 17.4182 28.6031 17.3036 28.4718C17.1918 28.3404 17.0269 28.2287 16.8089 28.1364C16.5938 28.0442 16.3297 27.9604 16.0167 27.8849L15.0819 27.6502C14.358 27.4741 13.7865 27.1988 13.3673 26.8243C12.9481 26.4499 12.7399 25.9454 12.7427 25.311C12.7399 24.7912 12.8783 24.3371 13.1577 23.9487C13.44 23.5602 13.8271 23.257 14.3189 23.039C14.8108 22.821 15.3697 22.712 15.9957 22.712C16.6329 22.712 17.189 22.821 17.6641 23.039C18.142 23.257 18.5137 23.5602 18.7792 23.9487C19.0447 24.3371 19.1816 24.7871 19.19 25.2985H17.4503ZM22.3308 31.5361C21.92 31.5361 21.5539 31.4649 21.2325 31.3223C20.9111 31.177 20.6568 30.9632 20.4696 30.681C20.2851 30.3959 20.1929 30.041 20.1929 29.6162C20.1929 29.2585 20.2586 28.9581 20.3899 28.7149C20.5213 28.4718 20.7001 28.2762 20.9265 28.1281C21.1529 27.9799 21.41 27.8681 21.6978 27.7927C21.9885 27.7172 22.2931 27.6641 22.6117 27.6334C22.9862 27.5943 23.288 27.5579 23.5171 27.5244C23.7463 27.4881 23.9126 27.435 24.016 27.3651C24.1194 27.2952 24.1711 27.1918 24.1711 27.0549V27.0298C24.1711 26.7643 24.0872 26.5589 23.9196 26.4135C23.7547 26.2682 23.5199 26.1956 23.2153 26.1956C22.8939 26.1956 22.6382 26.2668 22.4482 26.4093C22.2582 26.5491 22.1324 26.7251 22.0709 26.9375L20.4193 26.8034C20.5031 26.4121 20.668 26.074 20.9139 25.7889C21.1599 25.5011 21.477 25.2803 21.8655 25.1266C22.2568 24.9701 22.7095 24.8919 23.2237 24.8919C23.5814 24.8919 23.9238 24.9338 24.2507 25.0176C24.5805 25.1015 24.8725 25.2314 25.1269 25.4075C25.384 25.5835 25.5866 25.8099 25.7347 26.0866C25.8828 26.3604 25.9569 26.6888 25.9569 27.0717V31.4146H24.2633V30.5217H24.213C24.1096 30.7229 23.9713 30.9003 23.798 31.054C23.6247 31.205 23.4165 31.3237 23.1734 31.4104C22.9303 31.4942 22.6494 31.5361 22.3308 31.5361ZM22.8422 30.3037C23.1049 30.3037 23.3369 30.252 23.5381 30.1486C23.7393 30.0424 23.8972 29.8999 24.0118 29.721C24.1264 29.5421 24.1837 29.3395 24.1837 29.1132V28.4299C24.1278 28.4662 24.0509 28.4997 23.9531 28.5305C23.8581 28.5584 23.7505 28.585 23.6303 28.6101C23.5102 28.6325 23.39 28.6534 23.2698 28.673C23.1496 28.6898 23.0407 28.7051 22.9428 28.7191C22.7332 28.7499 22.5502 28.7988 22.3937 28.8658C22.2372 28.9329 22.1156 29.0237 22.029 29.1383C21.9424 29.2501 21.899 29.3898 21.899 29.5575C21.899 29.8006 21.9871 29.9865 22.1631 30.115C22.342 30.2408 22.5684 30.3037 22.8422 30.3037ZM29.1784 31.5361C28.7676 31.5361 28.4015 31.4649 28.0801 31.3223C27.7587 31.177 27.5044 30.9632 27.3172 30.681C27.1327 30.3959 27.0405 30.041 27.0405 29.6162C27.0405 29.2585 27.1062 28.9581 27.2375 28.7149C27.3689 28.4718 27.5477 28.2762 27.7741 28.1281C28.0004 27.9799 28.2576 27.8681 28.5454 27.7927C28.836 27.7172 29.1407 27.6641 29.4592 27.6334C29.8337 27.5943 30.1356 27.5579 30.3647 27.5244C30.5939 27.4881 30.7602 27.435 30.8636 27.3651C30.967 27.2952 31.0187 27.1918 31.0187 27.0549V27.0298C31.0187 26.7643 30.9348 26.5589 30.7671 26.4135C30.6023 26.2682 30.3675 26.1956 30.0629 26.1956C29.7415 26.1956 29.4858 26.2668 29.2958 26.4093C29.1057 26.5491 28.98 26.7251 28.9185 26.9375L27.2668 26.8034C27.3507 26.4121 27.5156 26.074 27.7615 25.7889C28.0074 25.5011 28.3246 25.2803 28.7131 25.1266C29.1043 24.9701 29.5571 24.8919 30.0713 24.8919C30.429 24.8919 30.7713 24.9338 31.0983 25.0176C31.4281 25.1015 31.7201 25.2314 31.9744 25.4075C32.2315 25.5835 32.4341 25.8099 32.5823 26.0866C32.7304 26.3604 32.8044 26.6888 32.8044 27.0717V31.4146H31.1109V30.5217H31.0606C30.9572 30.7229 30.8188 30.9003 30.6456 31.054C30.4723 31.205 30.2641 31.3237 30.021 31.4104C29.7778 31.4942 29.497 31.5361 29.1784 31.5361ZM29.6898 30.3037C29.9525 30.3037 30.1845 30.252 30.3857 30.1486C30.5869 30.0424 30.7448 29.8999 30.8594 29.721C30.9739 29.5421 31.0312 29.3395 31.0312 29.1132V28.4299C30.9753 28.4662 30.8985 28.4997 30.8007 28.5305C30.7057 28.5584 30.5981 28.585 30.4779 28.6101C30.3577 28.6325 30.2376 28.6534 30.1174 28.673C29.9972 28.6898 29.8882 28.7051 29.7904 28.7191C29.5808 28.7499 29.3978 28.7988 29.2413 28.8658C29.0848 28.9329 28.9632 29.0237 28.8766 29.1383C28.7899 29.2501 28.7466 29.3898 28.7466 29.5575C28.7466 29.8006 28.8346 29.9865 29.0107 30.115C29.1896 30.2408 29.4159 30.3037 29.6898 30.3037ZM38.8807 25.2985C38.8472 24.9603 38.7032 24.6976 38.4489 24.5104C38.1946 24.3231 37.8495 24.2295 37.4135 24.2295C37.1173 24.2295 36.8671 24.2714 36.6631 24.3553C36.4591 24.4363 36.3026 24.5495 36.1936 24.6948C36.0874 24.8402 36.0343 25.005 36.0343 25.1895C36.0288 25.3432 36.0609 25.4773 36.1308 25.5919C36.2034 25.7065 36.3026 25.8057 36.4284 25.8895C36.5541 25.9706 36.6995 26.0418 36.8644 26.1033C37.0292 26.162 37.2053 26.2123 37.3925 26.2542L38.1639 26.4387C38.5383 26.5225 38.8821 26.6343 39.1951 26.774C39.5081 26.9138 39.7792 27.0856 40.0083 27.2897C40.2375 27.4937 40.4149 27.734 40.5407 28.0107C40.6693 28.2873 40.7349 28.6045 40.7377 28.9623C40.7349 29.4876 40.6008 29.9432 40.3353 30.3288C40.0726 30.7117 39.6925 31.0093 39.1951 31.2217C38.7004 31.4313 38.1038 31.5361 37.4051 31.5361C36.712 31.5361 36.1084 31.4299 35.5942 31.2175C35.0828 31.0051 34.6831 30.6907 34.3953 30.2743C34.1102 29.8551 33.9607 29.3367 33.9467 28.7191H35.7032C35.7227 29.007 35.8052 29.2473 35.9505 29.4401C36.0986 29.6302 36.2956 29.7741 36.5416 29.8719C36.7903 29.9669 37.0712 30.0144 37.3842 30.0144C37.6916 30.0144 37.9585 29.9697 38.1848 29.8803C38.414 29.7909 38.5914 29.6665 38.7172 29.5072C38.843 29.3479 38.9058 29.1649 38.9058 28.9581C38.9058 28.7652 38.8485 28.6031 38.734 28.4718C38.6222 28.3404 38.4573 28.2287 38.2393 28.1364C38.0241 28.0442 37.76 27.9604 37.447 27.8849L36.5122 27.6502C35.7884 27.4741 35.2169 27.1988 34.7977 26.8243C34.3785 26.4499 34.1703 25.9454 34.1731 25.311C34.1703 24.7912 34.3087 24.3371 34.5881 23.9487C34.8704 23.5602 35.2574 23.257 35.7493 23.039C36.2411 22.821 36.8001 22.712 37.4261 22.712C38.0633 22.712 38.6194 22.821 39.0945 23.039C39.5724 23.257 39.944 23.5602 40.2095 23.9487C40.475 24.3371 40.612 24.7871 40.6204 25.2985H38.8807Z" fill="#232323"/>
</svg>
