<svg width="47" height="41" viewBox="0 0 47 41" fill="none" xmlns="http://www.w3.org/2000/svg">
<path fill-rule="evenodd" clip-rule="evenodd" d="M16.2674 19.1314C18.5139 19.1314 20.335 17.2814 20.335 14.9993C20.335 12.7172 18.5139 10.8671 16.2674 10.8671C14.0209 10.8671 12.1998 12.7172 12.1998 14.9993C12.1998 17.2814 14.0209 19.1314 16.2674 19.1314ZM16.2674 17.4786C17.6153 17.4786 18.7079 16.3686 18.7079 14.9993C18.7079 13.63 17.6153 12.52 16.2674 12.52C14.9195 12.52 13.8268 13.63 13.8268 14.9993C13.8268 16.3686 14.9195 17.4786 16.2674 17.4786Z" fill="#232323"/>
<path fill-rule="evenodd" clip-rule="evenodd" d="M13.5566 5.35106C13.8122 4.22613 14.7982 3.42926 15.9347 3.42926H16.6001C17.7366 3.42926 18.7226 4.22613 18.9781 5.35106L19.1593 6.14844C19.2849 6.70149 19.9093 6.96424 20.3831 6.66342L21.0663 6.22965C22.03 5.61777 23.2819 5.76261 24.0855 6.57896L24.5561 7.05695C25.3597 7.8733 25.5022 9.14508 24.8999 10.1241L24.4729 10.8182C24.1768 11.2995 24.4354 11.9338 24.9798 12.0615L25.7649 12.2455C26.8722 12.5051 27.6566 13.5068 27.6566 14.6613V15.3373C27.6566 16.4918 26.8722 17.4935 25.7649 17.7531L24.9799 17.9371C24.4355 18.0647 24.1769 18.6991 24.473 19.1804L24.8999 19.8743C25.5022 20.8533 25.3596 22.1251 24.556 22.9414L24.0855 23.4194C23.2819 24.2358 22.03 24.3806 21.0663 23.7687L20.3832 23.335C19.9094 23.0342 19.285 23.2969 19.1593 23.85L18.9781 24.6475C18.7226 25.7725 17.7366 26.5693 16.6001 26.5693H15.9347C14.7982 26.5693 13.8122 25.7725 13.5566 24.6475L13.3755 23.85C13.2498 23.2969 12.6254 23.0342 12.1516 23.335L11.4685 23.7687C10.5048 24.3806 9.25284 24.2358 8.44924 23.4194L7.97872 22.9414C7.17513 22.1251 7.03255 20.8533 7.63487 19.8743L8.0618 19.1804C8.35792 18.6991 8.09927 18.0647 7.55486 17.9371L6.76991 17.7531C5.66255 17.4935 4.87814 16.4918 4.87814 15.3373V14.6613C4.87814 13.5068 5.66255 12.5051 6.76991 12.2455L7.55494 12.0615C8.09935 11.9338 8.358 11.2995 8.06188 10.8182L7.63485 10.1241C7.03253 9.14508 7.17511 7.8733 7.9787 7.05695L8.44923 6.57896C9.25282 5.76261 10.5047 5.61777 11.4684 6.22965L12.1516 6.66342C12.6254 6.96424 13.2499 6.70149 13.3755 6.14844L13.5566 5.35106ZM15.9347 5.08212C15.5559 5.08212 15.2272 5.34774 15.142 5.72272L14.9609 6.5201C14.584 8.17925 12.7107 8.9675 11.2893 8.06504L10.6061 7.63127C10.2849 7.42731 9.86758 7.47559 9.59971 7.74771L9.12919 8.2257C8.86133 8.49782 8.8138 8.92174 9.01457 9.24808L9.4416 9.94217C10.33 11.3861 9.55403 13.2891 7.9208 13.672L7.13576 13.856C6.76664 13.9426 6.50517 14.2765 6.50517 14.6613V15.3373C6.50517 15.7221 6.76664 16.056 7.13576 16.1425L7.92072 16.3266C9.55394 16.7094 10.3299 18.6125 9.44152 20.0564L9.01459 20.7503C8.81382 21.0767 8.86135 21.5006 9.12921 21.7727L9.59973 22.2507C9.8676 22.5228 10.2849 22.5711 10.6061 22.3671L11.2893 21.9334C12.7106 21.0309 14.5839 21.8192 14.9608 23.4783L15.142 24.2759C15.2272 24.6508 15.5559 24.9165 15.9347 24.9165H16.6001C16.9789 24.9165 17.3076 24.6508 17.3928 24.2759L17.5739 23.4783C17.9508 21.8192 19.8241 21.0309 21.2455 21.9334L21.9286 22.3671C22.2499 22.5711 22.6672 22.5228 22.935 22.2507L23.4056 21.7727C23.6734 21.5006 23.721 21.0767 23.5202 20.7503L23.0932 20.0564C22.2049 18.6125 22.9808 16.7094 24.6141 16.3266L25.399 16.1425C25.7681 16.056 26.0296 15.7221 26.0296 15.3373V14.6613C26.0296 14.2765 25.7681 13.9426 25.399 13.856L24.614 13.672C22.9807 13.2891 22.2048 11.3861 23.0932 9.94217L23.5202 9.24808C23.721 8.92174 23.6734 8.49782 23.4056 8.2257L22.9351 7.74771C22.6672 7.47559 22.2499 7.42731 21.9287 7.63127L21.2455 8.06504C19.8241 8.9675 17.9508 8.17925 17.5739 6.5201L17.3928 5.72272C17.3076 5.34774 16.9789 5.08212 16.6001 5.08212H15.9347Z" fill="#232323"/>
<path fill-rule="evenodd" clip-rule="evenodd" d="M38.2324 19.1314C38.2324 20.5007 37.1397 21.6107 35.7918 21.6107C34.4439 21.6107 33.3513 20.5007 33.3513 19.1314C33.3513 17.7622 34.4439 16.6522 35.7918 16.6522C37.1397 16.6522 38.2324 17.7622 38.2324 19.1314ZM36.6053 19.1314C36.6053 19.5879 36.2411 19.9579 35.7918 19.9579C35.3425 19.9579 34.9783 19.5879 34.9783 19.1314C34.9783 18.675 35.3425 18.305 35.7918 18.305C36.2411 18.305 36.6053 18.675 36.6053 19.1314Z" fill="#232323"/>
<path fill-rule="evenodd" clip-rule="evenodd" d="M35.7697 12.52C34.891 12.52 34.1286 13.1361 33.931 14.0059C33.8909 14.1826 33.6913 14.2666 33.5399 14.1704C32.7948 13.6973 31.8268 13.8093 31.2055 14.4405L31.1742 14.4723C30.5529 15.1035 30.4427 16.0868 30.9084 16.8438C31.003 16.9976 30.9203 17.2003 30.7464 17.2411C29.8902 17.4418 29.2837 18.2163 29.2837 19.109V19.1539C29.2837 20.0466 29.8902 20.8211 30.7464 21.0218C30.9203 21.0626 31.003 21.2653 30.9083 21.419C30.4426 22.176 30.5529 23.1593 31.1742 23.7905L31.2055 23.8223C31.8268 24.4535 32.7948 24.5655 33.5399 24.0924C33.6913 23.9963 33.8909 24.0802 33.931 24.257C34.1286 25.1267 34.891 25.7429 35.7697 25.7429H35.8139C36.6926 25.7429 37.455 25.1267 37.6526 24.257C37.6928 24.0802 37.8923 23.9963 38.0437 24.0924C38.7888 24.5655 39.7568 24.4535 40.3781 23.8223L40.4094 23.7905C41.0307 23.1593 41.141 22.176 40.6753 21.419C40.5807 21.2653 40.6633 21.0626 40.8373 21.0218C41.6934 20.8211 42.3 20.0466 42.3 19.1539V19.109C42.3 18.2163 41.6935 17.4418 40.8373 17.2411C40.6633 17.2003 40.5806 16.9976 40.6753 16.8438C41.141 16.0868 41.0307 15.1035 40.4094 14.4723L40.3781 14.4405C39.7568 13.8093 38.7888 13.6973 38.0437 14.1704C37.8923 14.2666 37.6928 14.1826 37.6526 14.0059C37.455 13.1361 36.6926 12.52 35.814 12.52H35.7697ZM35.5164 14.3775C35.5436 14.2577 35.6486 14.1729 35.7697 14.1729H35.814C35.935 14.1729 36.04 14.2577 36.0672 14.3775C36.3587 15.6604 37.8071 16.2698 38.906 15.5721C39.0087 15.5069 39.142 15.5223 39.2276 15.6093L39.2589 15.641C39.3445 15.728 39.3597 15.8635 39.2955 15.9678C38.6087 17.0842 39.2086 18.5556 40.4714 18.8516C40.5894 18.8793 40.6729 18.986 40.6729 19.109V19.1539C40.6729 19.2769 40.5894 19.3836 40.4714 19.4112C39.2087 19.7073 38.6087 21.1786 39.2956 22.2951C39.3597 22.3993 39.3445 22.5348 39.2589 22.6217L39.2276 22.6535C39.142 22.7405 39.0087 22.7559 38.906 22.6907C37.807 21.993 36.3587 22.6025 36.0673 23.8853C36.04 24.0051 35.935 24.09 35.8139 24.09H35.7697C35.6487 24.09 35.5436 24.0051 35.5164 23.8853C35.225 22.6025 33.7766 21.993 32.6776 22.6907C32.5749 22.7559 32.4416 22.7405 32.356 22.6535L32.3247 22.6217C32.2391 22.5348 32.2239 22.3993 32.2881 22.2951C32.9749 21.1786 32.375 19.7073 31.1122 19.4112C30.9943 19.3836 30.9107 19.2769 30.9107 19.1539V19.109C30.9107 18.986 30.9943 18.8793 31.1122 18.8516C32.375 18.5556 32.9749 17.0842 32.2881 15.9678C32.2239 15.8635 32.2391 15.728 32.3247 15.641L32.356 15.6093C32.4416 15.5223 32.5749 15.5069 32.6776 15.5721C33.7766 16.2698 35.225 15.6604 35.5164 14.3775Z" fill="#232323"/>
<path fill-rule="evenodd" clip-rule="evenodd" d="M0.810547 2.60283C0.810547 1.23355 1.90322 0.123535 3.2511 0.123535H43.927C45.2749 0.123535 46.3675 1.23355 46.3675 2.60283V31.5279C46.3675 32.8972 45.2749 34.0072 43.927 34.0072H30.0972V38.9658C30.0972 39.8786 29.3687 40.6186 28.4702 40.6186H17.8944C16.9958 40.6186 16.2674 39.8786 16.2674 38.9658V34.0072H3.2511C1.90322 34.0072 0.810547 32.8972 0.810547 31.5279V2.60283ZM3.2511 1.7764C2.80181 1.7764 2.43758 2.1464 2.43758 2.60283V28.2222H44.7405V2.60283C44.7405 2.1464 44.3763 1.7764 43.927 1.7764H3.2511ZM44.7405 29.875H2.43758V31.5279C2.43758 31.9843 2.80181 32.3543 3.2511 32.3543H43.927C44.3763 32.3543 44.7405 31.9843 44.7405 31.5279V29.875ZM17.8944 34.0072H28.4702V38.9658H17.8944V34.0072Z" fill="#232323"/>
</svg>
