<svg width="46" height="39" viewBox="0 0 46 39" fill="none" xmlns="http://www.w3.org/2000/svg">
<path d="M24.0655 9.31603L24.2414 9.40396C24.9522 9.77033 25.531 10.3492 25.8974 11.06L25.9853 11.2358C26.337 11.9319 27.3336 11.9319 27.6926 11.2358L27.7806 11.06C28.1469 10.3492 28.7258 9.77033 29.4366 9.40396L29.6124 9.31603C30.3085 8.96432 30.3085 7.96778 29.6124 7.60874L29.4366 7.52081C28.7258 7.15444 28.1469 6.57557 27.7806 5.86481L27.6926 5.68895C27.3409 4.99284 26.3444 4.99284 25.9853 5.68895L25.8974 5.86481C25.531 6.57557 24.9522 7.15444 24.2414 7.52081L24.0655 7.60874C23.3694 7.96046 23.3694 8.95699 24.0655 9.31603Z" fill="#232323"/>
<path d="M25.4504 16.1818C26.1685 15.8155 26.1685 14.797 25.4504 14.4306L24.3806 13.881C23.4281 13.3901 22.6513 12.6134 22.1604 11.6608L21.6108 10.591C21.2445 9.87292 20.226 9.87292 19.8596 10.591L19.31 11.6608C18.8191 12.6134 18.0424 13.3901 17.0898 13.881L16.02 14.4306C15.3019 14.797 15.3019 15.8155 16.02 16.1818L17.0898 16.7314C18.0424 17.2223 18.8191 17.999 19.31 18.9516L19.8596 20.0214C20.226 20.7395 21.2445 20.7395 21.6108 20.0214L22.1604 18.9516C22.6513 17.999 23.4281 17.2223 24.3806 16.7314L25.4504 16.1818Z" fill="#232323"/>
<path d="M39.1967 20.5637L38.1122 20.0068C36.8006 19.34 35.7528 18.2921 35.086 16.9805L34.5291 15.8961C34.0382 14.9289 33.0563 14.328 31.9718 14.328C30.8874 14.328 29.9055 14.9289 29.4146 15.8961L28.8577 16.9805C28.1909 18.2921 27.1431 19.34 25.8315 20.0068L24.747 20.5637C23.7798 21.0546 23.1789 22.0365 23.1789 23.1209C23.1789 24.2054 23.7798 25.1873 24.747 25.6782L25.8315 26.2351C27.1431 26.9019 28.1909 27.9497 28.8577 29.2613L29.4146 30.3458C29.9055 31.313 30.8874 31.9139 31.9718 31.9139C33.0563 31.9139 34.0382 31.313 34.5291 30.3458L35.086 29.2613C35.7528 27.9497 36.8006 26.9019 38.1122 26.2351L39.1967 25.6782C40.1639 25.1873 40.7648 24.2054 40.7648 23.1209C40.7648 22.0365 40.1639 21.0546 39.1967 20.5637ZM38.2002 23.7218L37.1157 24.2787C35.3864 25.158 34.0089 26.5355 33.1296 28.2648L32.5727 29.3493C32.4042 29.679 32.0964 29.7156 31.9718 29.7156C31.8473 29.7156 31.5395 29.679 31.371 29.3493L30.8141 28.2648C29.9348 26.5355 28.5573 25.158 26.828 24.2787L25.7435 23.7218C25.4138 23.5532 25.3772 23.2455 25.3772 23.1209C25.3772 22.9964 25.4138 22.6886 25.7435 22.5201L26.828 21.9632C28.5573 21.0839 29.9348 19.7063 30.8141 17.9771L31.371 16.8926C31.5395 16.5629 31.8473 16.5262 31.9718 16.5262C32.0964 16.5262 32.4042 16.5629 32.5727 16.8926L33.1296 17.9771C34.0089 19.7063 35.3864 21.0839 37.1157 21.9632L38.2002 22.5201C38.5299 22.6886 38.5665 22.9964 38.5665 23.1209C38.5665 23.2455 38.5299 23.5532 38.2002 23.7218Z" fill="#232323"/>
<path d="M15.687 27.9102C15.1776 27.9102 14.7588 27.7631 14.4305 27.4688C14.1136 27.1631 13.9551 26.7896 13.9551 26.3481C13.9551 25.8953 14.1136 25.5218 14.4305 25.2275C14.7588 24.9219 15.1776 24.769 15.687 24.769C16.185 24.769 16.5926 24.9219 16.9095 25.2275C17.2378 25.5218 17.4019 25.8953 17.4019 26.3481C17.4019 26.7896 17.2378 27.1631 16.9095 27.4688C16.5926 27.7631 16.185 27.9102 15.687 27.9102ZM17.1302 28.895V38.3696H14.2267V28.895H17.1302Z" fill="#232323"/>
<path d="M9.12685 36.2641H4.67824L3.9651 38.3695H0.925781L5.23856 26.45H8.60049L12.9133 38.3695H9.83999L9.12685 36.2641ZM8.37976 34.0228L6.90255 29.6591L5.44231 34.0228H8.37976Z" fill="#232323"/>
</svg>
