<svg xmlns="http://www.w3.org/2000/svg" width="1080" height="168" fill="none"><path fill="url(#a)" fill-rule="evenodd" d="M560 19.5C560 8.73 551.27 0 540.5 0S521 8.73 521 19.5V92c0 14.359-11.641 26-26 26H198c-13.807 0-25 11.193-25 25s11.193 25 25 25h683c13.807 0 25-11.193 25-25s-11.193-25-25-25H586c-14.359 0-26-11.641-26-26V19.5z" clip-rule="evenodd"/><g style="mix-blend-mode:plus-lighter"><mask id="c" width="733" height="168" x="174" y="0" maskUnits="userSpaceOnUse" style="mask-type:alpha"><path fill="url(#b)" fill-rule="evenodd" d="M560 19.5C560 8.73 551.27 0 540.5 0S521 8.73 521 19.5V92c0 14.359-11.641 26-26 26H187c-7.18 0-13 5.82-13 13v24c0 7.18 5.82 13 13 13h707c7.18 0 13-5.82 13-13v-24c0-7.18-5.82-13-13-13H586c-14.359 0-26-11.641-26-26V19.5z" clip-rule="evenodd"/></mask><g mask="url(#c)" style="mix-blend-mode:plus-lighter"><g filter="url(#d)"><g filter="url(#e)" opacity=".8"><path fill="url(#f)" d="m584.869-684.405 26.072-.245-17.967 457.061-19.903 311.27-6.168-311.025 17.966-457.061z"/></g><g filter="url(#g)" opacity=".8"><path fill="url(#h)" d="m487.754-697.706 26.071-.245-17.966 457.061-19.903 311.27-6.168-311.025 17.966-457.061z"/></g><g filter="url(#i)" opacity=".8" style="mix-blend-mode:soft-light"><path fill="url(#j)" d="m647.596-766.079 26.071-.245-17.966 457.061-19.903 311.27-6.168-311.025 17.966-457.061z"/></g><g filter="url(#k)" opacity=".2" style="mix-blend-mode:plus-lighter"><path fill="url(#l)" d="m539.938-651.026 26.071-.245-17.966 457.06-19.904 311.271-6.168-311.026 17.967-457.06z"/></g><g filter="url(#m)" opacity=".8"><path fill="url(#n)" d="m584.869-684.405 26.072-.245-17.967 457.061-19.903 311.27-6.168-311.025 17.966-457.061z"/></g><g filter="url(#o)" opacity=".8"><path fill="url(#p)" d="m487.754-697.706 26.071-.245-17.966 457.061-19.903 311.27-6.168-311.025 17.966-457.061z"/></g><g filter="url(#q)" opacity=".8" style="mix-blend-mode:soft-light"><path fill="url(#r)" d="m647.596-766.079 26.071-.245-17.966 457.061-19.903 311.27-6.168-311.025 17.966-457.061z"/></g><g filter="url(#s)" opacity=".2" style="mix-blend-mode:plus-lighter"><path fill="url(#t)" d="m539.938-651.026 26.071-.245-17.966 457.06-19.904 311.271-6.168-311.026 17.967-457.06z"/></g><g filter="url(#u)" opacity=".8"><path fill="url(#v)" d="m584.869-684.405 26.072-.245-17.967 457.061-19.903 311.27-6.168-311.025 17.966-457.061z"/></g><g filter="url(#w)" opacity=".8"><path fill="url(#x)" d="m487.754-697.706 26.071-.245-17.966 457.061-19.903 311.27-6.168-311.025 17.966-457.061z"/></g><g filter="url(#y)" opacity=".8" style="mix-blend-mode:soft-light"><path fill="url(#z)" d="m647.596-766.079 26.071-.245-17.966 457.061-19.903 311.27-6.168-311.025 17.966-457.061z"/></g><g filter="url(#A)" opacity=".2" style="mix-blend-mode:plus-lighter"><path fill="url(#B)" d="m539.938-651.026 26.071-.245-17.966 457.06-19.904 311.271-6.168-311.026 17.967-457.06z"/></g><g filter="url(#C)" opacity=".8"><path fill="url(#D)" d="m584.871-684.408 26.072-.245-17.967 457.06-19.903 311.27-6.168-311.024 17.966-457.061z"/></g><g filter="url(#E)" opacity=".8"><path fill="url(#F)" d="m483.727-682.992 26.071-.245-17.966 457.061-19.903 311.27-6.169-311.025 17.967-457.061z"/></g><g filter="url(#G)" opacity=".8" style="mix-blend-mode:soft-light"><path fill="url(#H)" d="m647.594-766.081 26.071-.245-17.966 457.061-19.903 311.27-6.168-311.025 17.966-457.061z"/></g><g filter="url(#I)" opacity=".2" style="mix-blend-mode:plus-lighter"><path fill="url(#J)" d="m598.209-702.716 26.071-.245L606.314-245.9 586.411 65.37l-6.168-311.025 17.966-457.061z"/></g><g filter="url(#K)" opacity=".2" style="mix-blend-mode:plus-lighter"><path fill="url(#L)" d="m547.143-520.347 26.071-.245-17.966 457.061-19.903 311.27-6.169-311.025 17.967-457.061z"/></g></g><g filter="url(#M)" opacity=".8"><path fill="url(#N)" d="m584.869-684.405 26.072-.245-17.967 457.061-19.903 311.27-6.168-311.025 17.966-457.061z"/></g><g filter="url(#O)" opacity=".8"><path fill="url(#P)" d="m487.754-697.706 26.071-.245-17.966 457.061-19.903 311.27-6.168-311.025 17.966-457.061z"/></g><g filter="url(#Q)" opacity=".8" style="mix-blend-mode:soft-light"><path fill="url(#R)" d="m647.596-766.079 26.071-.245-17.966 457.061-19.903 311.27-6.168-311.025 17.966-457.061z"/></g><g filter="url(#S)" opacity=".2" style="mix-blend-mode:plus-lighter"><path fill="url(#T)" d="m539.938-651.026 26.071-.245-17.966 457.06-19.904 311.271-6.168-311.026 17.967-457.06z"/></g><g filter="url(#U)" opacity=".8"><path fill="url(#V)" d="m584.869-684.405 26.072-.245-17.967 457.061-19.903 311.27-6.168-311.025 17.966-457.061z"/></g><g filter="url(#W)" opacity=".8"><path fill="url(#X)" d="m487.754-697.706 26.071-.245-17.966 457.061-19.903 311.27-6.168-311.025 17.966-457.061z"/></g><g filter="url(#Y)" opacity=".8" style="mix-blend-mode:soft-light"><path fill="url(#Z)" d="m647.596-766.079 26.071-.245-17.966 457.061-19.903 311.27-6.168-311.025 17.966-457.061z"/></g><g filter="url(#aa)" opacity=".2" style="mix-blend-mode:plus-lighter"><path fill="url(#ab)" d="m539.938-651.026 26.071-.245-17.966 457.06-19.904 311.271-6.168-311.026 17.967-457.06z"/></g><g filter="url(#ac)" opacity=".8"><path fill="url(#ad)" d="m584.869-684.405 26.072-.245-17.967 457.061-19.903 311.27-6.168-311.025 17.966-457.061z"/></g><g filter="url(#ae)" opacity=".8"><path fill="url(#af)" d="m487.754-697.706 26.071-.245-17.966 457.061-19.903 311.27-6.168-311.025 17.966-457.061z"/></g><g filter="url(#ag)" opacity=".8" style="mix-blend-mode:soft-light"><path fill="url(#ah)" d="m647.596-766.079 26.071-.245-17.966 457.061-19.903 311.27-6.168-311.025 17.966-457.061z"/></g><g filter="url(#ai)" opacity=".2" style="mix-blend-mode:plus-lighter"><path fill="url(#aj)" d="m539.938-651.026 26.071-.245-17.966 457.06-19.904 311.271-6.168-311.026 17.967-457.06z"/></g><g filter="url(#ak)" opacity=".8"><path fill="url(#al)" d="m584.871-684.408 26.072-.245-17.967 457.06-19.903 311.27-6.168-311.024 17.966-457.061z"/></g><g filter="url(#am)" opacity=".8"><path fill="url(#an)" d="m544.363-683.346 26.072-.245-17.966 457.061-19.904 311.27-6.168-311.025 17.966-457.061z"/></g><g filter="url(#ao)" opacity=".8"><path fill="url(#ap)" d="m483.727-682.992 26.071-.245-17.966 457.061-19.903 311.27-6.169-311.025 17.967-457.061z"/></g><g filter="url(#aq)" opacity=".8" style="mix-blend-mode:soft-light"><path fill="url(#ar)" d="m647.594-766.081 26.071-.245-17.966 457.061-19.903 311.27-6.168-311.025 17.966-457.061z"/></g><g filter="url(#as)" opacity=".2" style="mix-blend-mode:plus-lighter"><path fill="url(#at)" d="m598.209-702.716 26.071-.245L606.314-245.9 586.411 65.37l-6.168-311.025 17.966-457.061z"/></g><g filter="url(#au)" opacity=".2" style="mix-blend-mode:plus-lighter"><path fill="url(#av)" d="m547.143-520.347 26.071-.245-17.966 457.061-19.903 311.27-6.169-311.025 17.967-457.061z"/></g></g></g><path stroke="url(#aw)" stroke-opacity=".1" d="M521 91V14"/><path stroke="#fff" stroke-opacity=".1" d="M199 118c-14.912 0-27 12.088-27 27v3m0 20v-20m27-30h292m30-27c0 14.912-12.088 27-27 27h-3"/><path stroke="url(#ax)" stroke-opacity=".1" d="M540 168V14"/><path stroke="url(#ay)" stroke-opacity=".1" d="M559 91V14"/><path stroke="#fff" stroke-opacity=".1" d="M879 118c14.912 0 27 12.088 27 27v3m0 20v-20m-27-30H589m-30-27c0 14.912 12.088 27 27 27h3"/><defs><linearGradient id="a" x1="541" x2="541" y1="-92" y2="168" gradientUnits="userSpaceOnUse"><stop stop-color="#000942"/><stop offset="1" stop-color="#00020F"/></linearGradient><linearGradient id="b" x1="541" x2="541" y1="-92" y2="168" gradientUnits="userSpaceOnUse"><stop stop-color="#000942"/><stop offset="1" stop-color="#00020F"/></linearGradient><linearGradient id="f" x1="597.905" x2="602.199" y1="-684.527" y2="-227.676" gradientUnits="userSpaceOnUse"><stop stop-color="#fff"/><stop offset="1" stop-color="#5C7EF5"/></linearGradient><linearGradient id="h" x1="500.79" x2="505.084" y1="-697.829" y2="-240.977" gradientUnits="userSpaceOnUse"><stop stop-color="#fff"/><stop offset="1" stop-color="#5C7EF5"/></linearGradient><linearGradient id="j" x1="660.631" x2="664.925" y1="-766.202" y2="-309.35" gradientUnits="userSpaceOnUse"><stop stop-color="#fff"/><stop offset="1" stop-color="#5C7EF5"/></linearGradient><linearGradient id="l" x1="552.973" x2="557.267" y1="-651.149" y2="-194.297" gradientUnits="userSpaceOnUse"><stop stop-color="#fff"/><stop offset="1" stop-color="#fff"/></linearGradient><linearGradient id="n" x1="597.905" x2="602.199" y1="-684.527" y2="-227.676" gradientUnits="userSpaceOnUse"><stop stop-color="#fff"/><stop offset="1" stop-color="#5C7EF5"/></linearGradient><linearGradient id="p" x1="500.79" x2="505.084" y1="-697.829" y2="-240.977" gradientUnits="userSpaceOnUse"><stop stop-color="#fff"/><stop offset="1" stop-color="#5C7EF5"/></linearGradient><linearGradient id="r" x1="660.631" x2="664.925" y1="-766.202" y2="-309.35" gradientUnits="userSpaceOnUse"><stop stop-color="#fff"/><stop offset="1" stop-color="#5C7EF5"/></linearGradient><linearGradient id="t" x1="552.973" x2="557.267" y1="-651.149" y2="-194.297" gradientUnits="userSpaceOnUse"><stop stop-color="#fff"/><stop offset="1" stop-color="#fff"/></linearGradient><linearGradient id="v" x1="597.905" x2="602.199" y1="-684.527" y2="-227.676" gradientUnits="userSpaceOnUse"><stop stop-color="#fff"/><stop offset="1" stop-color="#5C7EF5"/></linearGradient><linearGradient id="x" x1="500.79" x2="505.084" y1="-697.829" y2="-240.977" gradientUnits="userSpaceOnUse"><stop stop-color="#fff"/><stop offset="1" stop-color="#5C7EF5"/></linearGradient><linearGradient id="z" x1="660.631" x2="664.925" y1="-766.202" y2="-309.35" gradientUnits="userSpaceOnUse"><stop stop-color="#fff"/><stop offset="1" stop-color="#5C7EF5"/></linearGradient><linearGradient id="B" x1="552.973" x2="557.267" y1="-651.149" y2="-194.297" gradientUnits="userSpaceOnUse"><stop stop-color="#fff"/><stop offset="1" stop-color="#fff"/></linearGradient><linearGradient id="D" x1="597.907" x2="602.201" y1="-684.531" y2="-227.679" gradientUnits="userSpaceOnUse"><stop stop-color="#fff"/><stop offset=".557" stop-color="#00CBFF"/><stop offset="1" stop-color="#501BE5"/></linearGradient><linearGradient id="F" x1="496.762" x2="501.056" y1="-683.115" y2="-226.263" gradientUnits="userSpaceOnUse"><stop stop-color="#fff"/><stop offset="1" stop-color="#5C7EF5"/></linearGradient><linearGradient id="H" x1="660.629" x2="664.924" y1="-766.204" y2="-309.352" gradientUnits="userSpaceOnUse"><stop stop-color="#fff"/><stop offset=".557" stop-color="#00CBFF"/><stop offset="1" stop-color="#501BE5"/></linearGradient><linearGradient id="J" x1="611.245" x2="615.539" y1="-702.838" y2="-245.987" gradientUnits="userSpaceOnUse"><stop stop-color="#fff"/><stop offset="1" stop-color="#fff"/></linearGradient><linearGradient id="L" x1="560.178" x2="564.472" y1="-520.469" y2="-63.618" gradientUnits="userSpaceOnUse"><stop stop-color="#fff"/><stop offset="1" stop-color="#fff"/></linearGradient><linearGradient id="N" x1="597.905" x2="602.199" y1="-684.527" y2="-227.676" gradientUnits="userSpaceOnUse"><stop stop-color="#fff"/><stop offset="1" stop-color="#5C7EF5"/></linearGradient><linearGradient id="P" x1="500.79" x2="505.084" y1="-697.829" y2="-240.977" gradientUnits="userSpaceOnUse"><stop stop-color="#fff"/><stop offset="1" stop-color="#5C7EF5"/></linearGradient><linearGradient id="R" x1="660.631" x2="664.925" y1="-766.202" y2="-309.35" gradientUnits="userSpaceOnUse"><stop stop-color="#fff"/><stop offset="1" stop-color="#5C7EF5"/></linearGradient><linearGradient id="T" x1="552.973" x2="557.267" y1="-651.149" y2="-194.297" gradientUnits="userSpaceOnUse"><stop stop-color="#fff"/><stop offset="1" stop-color="#fff"/></linearGradient><linearGradient id="V" x1="597.905" x2="602.199" y1="-684.527" y2="-227.676" gradientUnits="userSpaceOnUse"><stop stop-color="#fff"/><stop offset="1" stop-color="#5C7EF5"/></linearGradient><linearGradient id="X" x1="500.79" x2="505.084" y1="-697.829" y2="-240.977" gradientUnits="userSpaceOnUse"><stop stop-color="#fff"/><stop offset="1" stop-color="#5C7EF5"/></linearGradient><linearGradient id="Z" x1="660.631" x2="664.925" y1="-766.202" y2="-309.35" gradientUnits="userSpaceOnUse"><stop stop-color="#fff"/><stop offset="1" stop-color="#5C7EF5"/></linearGradient><linearGradient id="ab" x1="552.973" x2="557.267" y1="-651.149" y2="-194.297" gradientUnits="userSpaceOnUse"><stop stop-color="#fff"/><stop offset="1" stop-color="#fff"/></linearGradient><linearGradient id="ad" x1="597.905" x2="602.199" y1="-684.527" y2="-227.676" gradientUnits="userSpaceOnUse"><stop stop-color="#fff"/><stop offset="1" stop-color="#5C7EF5"/></linearGradient><linearGradient id="af" x1="500.79" x2="505.084" y1="-697.829" y2="-240.977" gradientUnits="userSpaceOnUse"><stop stop-color="#fff"/><stop offset="1" stop-color="#5C7EF5"/></linearGradient><linearGradient id="ah" x1="660.631" x2="664.925" y1="-766.202" y2="-309.35" gradientUnits="userSpaceOnUse"><stop stop-color="#fff"/><stop offset="1" stop-color="#5C7EF5"/></linearGradient><linearGradient id="aj" x1="552.973" x2="557.267" y1="-651.149" y2="-194.297" gradientUnits="userSpaceOnUse"><stop stop-color="#fff"/><stop offset="1" stop-color="#fff"/></linearGradient><linearGradient id="al" x1="597.907" x2="602.201" y1="-684.531" y2="-227.679" gradientUnits="userSpaceOnUse"><stop stop-color="#fff"/><stop offset=".557" stop-color="#00CBFF"/><stop offset="1" stop-color="#501BE5"/></linearGradient><linearGradient id="an" x1="557.399" x2="561.693" y1="-683.468" y2="-226.617" gradientUnits="userSpaceOnUse"><stop stop-color="#fff"/><stop offset=".557" stop-color="#00CBFF"/><stop offset="1" stop-color="#501BE5"/></linearGradient><linearGradient id="ap" x1="496.762" x2="501.056" y1="-683.115" y2="-226.263" gradientUnits="userSpaceOnUse"><stop stop-color="#fff"/><stop offset="1" stop-color="#5C7EF5"/></linearGradient><linearGradient id="ar" x1="660.629" x2="664.924" y1="-766.204" y2="-309.352" gradientUnits="userSpaceOnUse"><stop stop-color="#fff"/><stop offset=".557" stop-color="#00CBFF"/><stop offset="1" stop-color="#501BE5"/></linearGradient><linearGradient id="at" x1="611.245" x2="615.539" y1="-702.838" y2="-245.987" gradientUnits="userSpaceOnUse"><stop stop-color="#fff"/><stop offset="1" stop-color="#fff"/></linearGradient><linearGradient id="av" x1="560.178" x2="564.472" y1="-520.469" y2="-63.618" gradientUnits="userSpaceOnUse"><stop stop-color="#fff"/><stop offset="1" stop-color="#fff"/></linearGradient><linearGradient id="aw" x1="522" x2="522" y1="91" y2="14" gradientUnits="userSpaceOnUse"><stop stop-color="#fff"/><stop offset="1" stop-color="#fff" stop-opacity="0"/></linearGradient><linearGradient id="ax" x1="541" x2="541" y1="168" y2="14" gradientUnits="userSpaceOnUse"><stop offset=".289" stop-color="#fff"/><stop offset="1" stop-color="#fff" stop-opacity="0"/></linearGradient><linearGradient id="ay" x1="558" x2="558" y1="91" y2="14" gradientUnits="userSpaceOnUse"><stop stop-color="#fff"/><stop offset="1" stop-color="#fff" stop-opacity="0"/></linearGradient><filter id="d" width="366.798" height="1172.96" x="386.315" y="-845.771" color-interpolation-filters="sRGB" filterUnits="userSpaceOnUse"><feFlood flood-opacity="0" result="BackgroundImageFix"/><feBlend in="SourceGraphic" in2="BackgroundImageFix" result="shape"/><feGaussianBlur result="effect1_foregroundBlur_995_47209" stdDeviation="39.722"/></filter><filter id="e" width="180.861" height="905.153" x="498.491" y="-753.061" color-interpolation-filters="sRGB" filterUnits="userSpaceOnUse"><feFlood flood-opacity="0" result="BackgroundImageFix"/><feBlend in="SourceGraphic" in2="BackgroundImageFix" result="shape"/><feGaussianBlur result="effect1_foregroundBlur_995_47209" stdDeviation="34.206"/></filter><filter id="g" width="180.861" height="905.153" x="401.376" y="-766.362" color-interpolation-filters="sRGB" filterUnits="userSpaceOnUse"><feFlood flood-opacity="0" result="BackgroundImageFix"/><feBlend in="SourceGraphic" in2="BackgroundImageFix" result="shape"/><feGaussianBlur result="effect1_foregroundBlur_995_47209" stdDeviation="34.206"/></filter><filter id="i" width="180.861" height="905.153" x="561.218" y="-834.735" color-interpolation-filters="sRGB" filterUnits="userSpaceOnUse"><feFlood flood-opacity="0" result="BackgroundImageFix"/><feBlend in="SourceGraphic" in2="BackgroundImageFix" result="shape"/><feGaussianBlur result="effect1_foregroundBlur_995_47209" stdDeviation="34.206"/></filter><filter id="k" width="121.877" height="846.169" x="483.052" y="-690.191" color-interpolation-filters="sRGB" filterUnits="userSpaceOnUse"><feFlood flood-opacity="0" result="BackgroundImageFix"/><feBlend in="SourceGraphic" in2="BackgroundImageFix" result="shape"/><feGaussianBlur result="effect1_foregroundBlur_995_47209" stdDeviation="19.46"/></filter><filter id="m" width="180.861" height="905.153" x="498.491" y="-753.061" color-interpolation-filters="sRGB" filterUnits="userSpaceOnUse"><feFlood flood-opacity="0" result="BackgroundImageFix"/><feBlend in="SourceGraphic" in2="BackgroundImageFix" result="shape"/><feGaussianBlur result="effect1_foregroundBlur_995_47209" stdDeviation="34.206"/></filter><filter id="o" width="180.861" height="905.153" x="401.376" y="-766.362" color-interpolation-filters="sRGB" filterUnits="userSpaceOnUse"><feFlood flood-opacity="0" result="BackgroundImageFix"/><feBlend in="SourceGraphic" in2="BackgroundImageFix" result="shape"/><feGaussianBlur result="effect1_foregroundBlur_995_47209" stdDeviation="34.206"/></filter><filter id="q" width="180.861" height="905.153" x="561.218" y="-834.735" color-interpolation-filters="sRGB" filterUnits="userSpaceOnUse"><feFlood flood-opacity="0" result="BackgroundImageFix"/><feBlend in="SourceGraphic" in2="BackgroundImageFix" result="shape"/><feGaussianBlur result="effect1_foregroundBlur_995_47209" stdDeviation="34.206"/></filter><filter id="s" width="121.877" height="846.169" x="483.052" y="-690.191" color-interpolation-filters="sRGB" filterUnits="userSpaceOnUse"><feFlood flood-opacity="0" result="BackgroundImageFix"/><feBlend in="SourceGraphic" in2="BackgroundImageFix" result="shape"/><feGaussianBlur result="effect1_foregroundBlur_995_47209" stdDeviation="19.46"/></filter><filter id="u" width="180.861" height="905.153" x="498.491" y="-753.061" color-interpolation-filters="sRGB" filterUnits="userSpaceOnUse"><feFlood flood-opacity="0" result="BackgroundImageFix"/><feBlend in="SourceGraphic" in2="BackgroundImageFix" result="shape"/><feGaussianBlur result="effect1_foregroundBlur_995_47209" stdDeviation="34.206"/></filter><filter id="w" width="180.861" height="905.153" x="401.376" y="-766.362" color-interpolation-filters="sRGB" filterUnits="userSpaceOnUse"><feFlood flood-opacity="0" result="BackgroundImageFix"/><feBlend in="SourceGraphic" in2="BackgroundImageFix" result="shape"/><feGaussianBlur result="effect1_foregroundBlur_995_47209" stdDeviation="34.206"/></filter><filter id="y" width="180.861" height="905.153" x="561.218" y="-834.735" color-interpolation-filters="sRGB" filterUnits="userSpaceOnUse"><feFlood flood-opacity="0" result="BackgroundImageFix"/><feBlend in="SourceGraphic" in2="BackgroundImageFix" result="shape"/><feGaussianBlur result="effect1_foregroundBlur_995_47209" stdDeviation="34.206"/></filter><filter id="A" width="121.877" height="846.169" x="483.052" y="-690.191" color-interpolation-filters="sRGB" filterUnits="userSpaceOnUse"><feFlood flood-opacity="0" result="BackgroundImageFix"/><feBlend in="SourceGraphic" in2="BackgroundImageFix" result="shape"/><feGaussianBlur result="effect1_foregroundBlur_995_47209" stdDeviation="19.46"/></filter><filter id="C" width="180.861" height="905.153" x="498.493" y="-753.064" color-interpolation-filters="sRGB" filterUnits="userSpaceOnUse"><feFlood flood-opacity="0" result="BackgroundImageFix"/><feBlend in="SourceGraphic" in2="BackgroundImageFix" result="shape"/><feGaussianBlur result="effect1_foregroundBlur_995_47209" stdDeviation="34.206"/></filter><filter id="E" width="180.861" height="905.153" x="397.349" y="-751.648" color-interpolation-filters="sRGB" filterUnits="userSpaceOnUse"><feFlood flood-opacity="0" result="BackgroundImageFix"/><feBlend in="SourceGraphic" in2="BackgroundImageFix" result="shape"/><feGaussianBlur result="effect1_foregroundBlur_995_47209" stdDeviation="34.206"/></filter><filter id="G" width="180.861" height="905.153" x="561.216" y="-834.737" color-interpolation-filters="sRGB" filterUnits="userSpaceOnUse"><feFlood flood-opacity="0" result="BackgroundImageFix"/><feBlend in="SourceGraphic" in2="BackgroundImageFix" result="shape"/><feGaussianBlur result="effect1_foregroundBlur_995_47209" stdDeviation="34.206"/></filter><filter id="I" width="121.877" height="846.169" x="541.323" y="-741.88" color-interpolation-filters="sRGB" filterUnits="userSpaceOnUse"><feFlood flood-opacity="0" result="BackgroundImageFix"/><feBlend in="SourceGraphic" in2="BackgroundImageFix" result="shape"/><feGaussianBlur result="effect1_foregroundBlur_995_47209" stdDeviation="19.46"/></filter><filter id="K" width="121.877" height="846.169" x="490.257" y="-559.511" color-interpolation-filters="sRGB" filterUnits="userSpaceOnUse"><feFlood flood-opacity="0" result="BackgroundImageFix"/><feBlend in="SourceGraphic" in2="BackgroundImageFix" result="shape"/><feGaussianBlur result="effect1_foregroundBlur_995_47209" stdDeviation="19.46"/></filter><filter id="M" width="180.861" height="905.153" x="498.491" y="-753.061" color-interpolation-filters="sRGB" filterUnits="userSpaceOnUse"><feFlood flood-opacity="0" result="BackgroundImageFix"/><feBlend in="SourceGraphic" in2="BackgroundImageFix" result="shape"/><feGaussianBlur result="effect1_foregroundBlur_995_47209" stdDeviation="34.206"/></filter><filter id="O" width="180.861" height="905.153" x="401.376" y="-766.362" color-interpolation-filters="sRGB" filterUnits="userSpaceOnUse"><feFlood flood-opacity="0" result="BackgroundImageFix"/><feBlend in="SourceGraphic" in2="BackgroundImageFix" result="shape"/><feGaussianBlur result="effect1_foregroundBlur_995_47209" stdDeviation="34.206"/></filter><filter id="Q" width="180.861" height="905.153" x="561.218" y="-834.735" color-interpolation-filters="sRGB" filterUnits="userSpaceOnUse"><feFlood flood-opacity="0" result="BackgroundImageFix"/><feBlend in="SourceGraphic" in2="BackgroundImageFix" result="shape"/><feGaussianBlur result="effect1_foregroundBlur_995_47209" stdDeviation="34.206"/></filter><filter id="S" width="121.877" height="846.169" x="483.052" y="-690.191" color-interpolation-filters="sRGB" filterUnits="userSpaceOnUse"><feFlood flood-opacity="0" result="BackgroundImageFix"/><feBlend in="SourceGraphic" in2="BackgroundImageFix" result="shape"/><feGaussianBlur result="effect1_foregroundBlur_995_47209" stdDeviation="19.46"/></filter><filter id="U" width="180.861" height="905.153" x="498.491" y="-753.061" color-interpolation-filters="sRGB" filterUnits="userSpaceOnUse"><feFlood flood-opacity="0" result="BackgroundImageFix"/><feBlend in="SourceGraphic" in2="BackgroundImageFix" result="shape"/><feGaussianBlur result="effect1_foregroundBlur_995_47209" stdDeviation="34.206"/></filter><filter id="W" width="180.861" height="905.153" x="401.376" y="-766.362" color-interpolation-filters="sRGB" filterUnits="userSpaceOnUse"><feFlood flood-opacity="0" result="BackgroundImageFix"/><feBlend in="SourceGraphic" in2="BackgroundImageFix" result="shape"/><feGaussianBlur result="effect1_foregroundBlur_995_47209" stdDeviation="34.206"/></filter><filter id="Y" width="180.861" height="905.153" x="561.218" y="-834.735" color-interpolation-filters="sRGB" filterUnits="userSpaceOnUse"><feFlood flood-opacity="0" result="BackgroundImageFix"/><feBlend in="SourceGraphic" in2="BackgroundImageFix" result="shape"/><feGaussianBlur result="effect1_foregroundBlur_995_47209" stdDeviation="34.206"/></filter><filter id="aa" width="121.877" height="846.169" x="483.052" y="-690.191" color-interpolation-filters="sRGB" filterUnits="userSpaceOnUse"><feFlood flood-opacity="0" result="BackgroundImageFix"/><feBlend in="SourceGraphic" in2="BackgroundImageFix" result="shape"/><feGaussianBlur result="effect1_foregroundBlur_995_47209" stdDeviation="19.46"/></filter><filter id="ac" width="180.861" height="905.153" x="498.491" y="-753.061" color-interpolation-filters="sRGB" filterUnits="userSpaceOnUse"><feFlood flood-opacity="0" result="BackgroundImageFix"/><feBlend in="SourceGraphic" in2="BackgroundImageFix" result="shape"/><feGaussianBlur result="effect1_foregroundBlur_995_47209" stdDeviation="34.206"/></filter><filter id="ae" width="180.861" height="905.153" x="401.376" y="-766.362" color-interpolation-filters="sRGB" filterUnits="userSpaceOnUse"><feFlood flood-opacity="0" result="BackgroundImageFix"/><feBlend in="SourceGraphic" in2="BackgroundImageFix" result="shape"/><feGaussianBlur result="effect1_foregroundBlur_995_47209" stdDeviation="34.206"/></filter><filter id="ag" width="180.861" height="905.153" x="561.218" y="-834.735" color-interpolation-filters="sRGB" filterUnits="userSpaceOnUse"><feFlood flood-opacity="0" result="BackgroundImageFix"/><feBlend in="SourceGraphic" in2="BackgroundImageFix" result="shape"/><feGaussianBlur result="effect1_foregroundBlur_995_47209" stdDeviation="34.206"/></filter><filter id="ai" width="121.877" height="846.169" x="483.052" y="-690.191" color-interpolation-filters="sRGB" filterUnits="userSpaceOnUse"><feFlood flood-opacity="0" result="BackgroundImageFix"/><feBlend in="SourceGraphic" in2="BackgroundImageFix" result="shape"/><feGaussianBlur result="effect1_foregroundBlur_995_47209" stdDeviation="19.46"/></filter><filter id="ak" width="180.861" height="905.153" x="498.493" y="-753.064" color-interpolation-filters="sRGB" filterUnits="userSpaceOnUse"><feFlood flood-opacity="0" result="BackgroundImageFix"/><feBlend in="SourceGraphic" in2="BackgroundImageFix" result="shape"/><feGaussianBlur result="effect1_foregroundBlur_995_47209" stdDeviation="34.206"/></filter><filter id="am" width="180.861" height="905.153" x="457.985" y="-752.002" color-interpolation-filters="sRGB" filterUnits="userSpaceOnUse"><feFlood flood-opacity="0" result="BackgroundImageFix"/><feBlend in="SourceGraphic" in2="BackgroundImageFix" result="shape"/><feGaussianBlur result="effect1_foregroundBlur_995_47209" stdDeviation="34.206"/></filter><filter id="ao" width="180.861" height="905.153" x="397.349" y="-751.648" color-interpolation-filters="sRGB" filterUnits="userSpaceOnUse"><feFlood flood-opacity="0" result="BackgroundImageFix"/><feBlend in="SourceGraphic" in2="BackgroundImageFix" result="shape"/><feGaussianBlur result="effect1_foregroundBlur_995_47209" stdDeviation="34.206"/></filter><filter id="aq" width="180.861" height="905.153" x="561.216" y="-834.737" color-interpolation-filters="sRGB" filterUnits="userSpaceOnUse"><feFlood flood-opacity="0" result="BackgroundImageFix"/><feBlend in="SourceGraphic" in2="BackgroundImageFix" result="shape"/><feGaussianBlur result="effect1_foregroundBlur_995_47209" stdDeviation="34.206"/></filter><filter id="as" width="121.877" height="846.169" x="541.323" y="-741.88" color-interpolation-filters="sRGB" filterUnits="userSpaceOnUse"><feFlood flood-opacity="0" result="BackgroundImageFix"/><feBlend in="SourceGraphic" in2="BackgroundImageFix" result="shape"/><feGaussianBlur result="effect1_foregroundBlur_995_47209" stdDeviation="19.46"/></filter><filter id="au" width="121.877" height="846.169" x="490.257" y="-559.511" color-interpolation-filters="sRGB" filterUnits="userSpaceOnUse"><feFlood flood-opacity="0" result="BackgroundImageFix"/><feBlend in="SourceGraphic" in2="BackgroundImageFix" result="shape"/><feGaussianBlur result="effect1_foregroundBlur_995_47209" stdDeviation="19.46"/></filter></defs></svg>