<svg width="40" height="40" viewBox="0 0 40 40" fill="none" xmlns="http://www.w3.org/2000/svg">
<g clip-path="url(#clip0_2090_283)">
<path d="M19.808 0.15625C9.67797 0.156251 10.3106 4.54925 10.3106 4.54925L10.3219 9.10035H19.9887V10.4668H6.48221C6.48221 10.4668 0 9.73167 0 19.953C-7.225e-07 30.1743 5.65782 29.8118 5.65782 29.8118H9.03444V25.0687C9.03444 25.0687 8.85243 19.4109 14.6019 19.4109H24.1897C24.1897 19.4109 29.5765 19.498 29.5765 14.2048V5.45269C29.5765 5.45269 30.3944 0.15625 19.808 0.15625ZM14.4777 3.21667C15.4395 3.21667 16.2168 3.99402 16.2168 4.9558C16.2168 5.91758 15.4395 6.69493 14.4777 6.69493C13.5159 6.69493 12.7386 5.91758 12.7386 4.9558C12.7386 3.99402 13.5159 3.21667 14.4777 3.21667Z" fill="url(#paint0_linear_2090_283)"/>
<path d="M20.0956 39.8522C30.2257 39.8522 29.5931 35.4592 29.5931 35.4592L29.5818 30.9081H19.915V29.5417H33.4214C33.4214 29.5417 39.9037 30.2768 39.9037 20.0555C39.9037 9.83419 34.2458 10.1967 34.2458 10.1967H30.8692V14.9397C30.8692 14.9397 31.0512 20.5976 25.3017 20.5976H15.7139C15.7139 20.5976 10.3271 20.5105 10.3271 25.8037V34.5558C10.3271 34.5558 9.50929 39.8522 20.0956 39.8522ZM25.426 36.7918C24.4642 36.7918 23.6868 36.0145 23.6868 35.0527C23.6868 34.0909 24.4642 33.3135 25.426 33.3135C26.3877 33.3135 27.1651 34.0909 27.1651 35.0527C27.1651 36.0145 26.3877 36.7918 25.426 36.7918Z" fill="url(#paint1_linear_2090_283)"/>
</g>
<defs>
<linearGradient id="paint0_linear_2090_283" x1="3.83482" y1="3.72679" x2="23.6097" y2="23.3043" gradientUnits="userSpaceOnUse">
<stop stop-color="#387EB8"/>
<stop offset="1" stop-color="#366994"/>
</linearGradient>
<linearGradient id="paint1_linear_2090_283" x1="15.9726" y1="16.2983" x2="37.2086" y2="36.3734" gradientUnits="userSpaceOnUse">
<stop stop-color="#FFE052"/>
<stop offset="1" stop-color="#FFC331"/>
</linearGradient>
<clipPath id="clip0_2090_283">
<rect width="40" height="40" fill="white"/>
</clipPath>
</defs>
</svg>
