<svg width="33" height="42" viewBox="0 0 33 42" fill="none" xmlns="http://www.w3.org/2000/svg">
<path d="M15.1181 0.953857H21.7186V31.5057C18.3326 32.1486 15.8466 32.4057 13.1466 32.4057C5.08895 32.4057 0.888672 28.7632 0.888672 21.7763C0.888672 15.0475 5.34637 10.6758 12.2466 10.6758C13.3181 10.6758 14.1324 10.7618 15.1183 11.0184L15.1181 0.953857ZM15.1181 16.3327C14.3466 16.0758 13.7038 15.9901 12.8895 15.9901C9.54637 15.9901 7.61752 18.0475 7.61752 21.6472C7.61752 25.1623 9.46065 27.0909 12.8466 27.0909C13.5749 27.0909 14.1752 27.0481 15.1181 26.92V16.3327Z" fill="#092E20"/>
<path d="M32.219 11.1467V26.4484C32.219 31.7198 31.8333 34.2484 30.6762 36.4346C29.6045 38.5349 28.1899 39.8629 25.2756 41.3203L19.1465 38.4058C22.061 37.0344 23.4753 35.8352 24.3753 33.9912C25.3185 32.1058 25.6187 29.9192 25.6187 24.1761V11.1467H32.219ZM25.6187 0.989014H32.219V7.76127H25.6187V0.989014Z" fill="#092E20"/>
</svg>
