<svg width="41" height="40" viewBox="0 0 41 40" fill="none" xmlns="http://www.w3.org/2000/svg">
<path d="M27.5754 5.10125L27.6854 5.15375C28.13 5.3725 28.4921 5.71812 28.7213 6.1425L28.7763 6.2475C28.9963 6.66312 29.6196 6.66312 29.8442 6.2475L29.8992 6.1425C30.1283 5.71812 30.4904 5.3725 30.935 5.15375L31.045 5.10125C31.4804 4.89125 31.4804 4.29625 31.045 4.08187L30.935 4.02937C30.4904 3.81062 30.1283 3.465 29.8992 3.04062L29.8442 2.93562C29.6242 2.52 29.0008 2.52 28.7763 2.93562L28.7213 3.04062C28.4921 3.465 28.13 3.81062 27.6854 4.02937L27.5754 4.08187C27.14 4.29187 27.14 4.88687 27.5754 5.10125Z" fill="#154880"/>
<path d="M28.4417 9.20062C28.8908 8.98187 28.8908 8.37375 28.4417 8.155L27.7725 7.82687C27.1767 7.53375 26.6908 7.07 26.3838 6.50125L26.04 5.8625C25.8108 5.43375 25.1738 5.43375 24.9446 5.8625L24.6008 6.50125C24.2938 7.07 23.8079 7.53375 23.2121 7.82687L22.5429 8.155C22.0938 8.37375 22.0938 8.98187 22.5429 9.20062L23.2121 9.52875C23.8079 9.82187 24.2938 10.2856 24.6008 10.8544L24.9446 11.4931C25.1738 11.9219 25.8108 11.9219 26.04 11.4931L26.3838 10.8544C26.6908 10.2856 27.1767 9.82187 27.7725 9.52875L28.4417 9.20062Z" fill="#154880"/>
<path d="M37.04 11.8169L36.3617 11.4844C35.5413 11.0862 34.8858 10.4606 34.4688 9.6775L34.1204 9.03C33.8133 8.4525 33.1992 8.09375 32.5208 8.09375C31.8425 8.09375 31.2283 8.4525 30.9213 9.03L30.5729 9.6775C30.1558 10.4606 29.5004 11.0862 28.68 11.4844L28.0017 11.8169C27.3967 12.11 27.0208 12.6962 27.0208 13.3437C27.0208 13.9912 27.3967 14.5775 28.0017 14.8706L28.68 15.2031C29.5004 15.6012 30.1558 16.2269 30.5729 17.01L30.9213 17.6575C31.2283 18.235 31.8425 18.5937 32.5208 18.5937C33.1992 18.5937 33.8133 18.235 34.1204 17.6575L34.4688 17.01C34.8858 16.2269 35.5413 15.6012 36.3617 15.2031L37.04 14.8706C37.645 14.5775 38.0208 13.9912 38.0208 13.3437C38.0208 12.6962 37.645 12.11 37.04 11.8169ZM36.4167 13.7025L35.7383 14.035C34.6567 14.56 33.795 15.3825 33.245 16.415L32.8967 17.0625C32.7913 17.2594 32.5988 17.2812 32.5208 17.2812C32.4429 17.2812 32.2504 17.2594 32.145 17.0625L31.7967 16.415C31.2467 15.3825 30.385 14.56 29.3033 14.035L28.625 13.7025C28.4188 13.6019 28.3958 13.4181 28.3958 13.3437C28.3958 13.2694 28.4188 13.0856 28.625 12.985L29.3033 12.6525C30.385 12.1275 31.2467 11.305 31.7967 10.2725L32.145 9.625C32.2504 9.42812 32.4429 9.40625 32.5208 9.40625C32.5988 9.40625 32.7913 9.42812 32.8967 9.625L33.245 10.2725C33.795 11.305 34.6567 12.1275 35.7383 12.6525L36.4167 12.985C36.6229 13.0856 36.6458 13.2694 36.6458 13.3437C36.6458 13.4181 36.6229 13.6019 36.4167 13.7025Z" fill="#154880"/>
<path d="M24.5284 22.2198C23.6819 22.2198 22.9859 21.9753 22.4404 21.4862C21.9137 20.9784 21.6504 20.3576 21.6504 19.624C21.6504 18.8716 21.9137 18.2509 22.4404 17.7618C22.9859 17.2539 23.6819 17 24.5284 17C25.356 17 26.0332 17.2539 26.5599 17.7618C27.1054 18.2509 27.3781 18.8716 27.3781 19.624C27.3781 20.3576 27.1054 20.9784 26.5599 21.4862C26.0332 21.9753 25.356 22.2198 24.5284 22.2198ZM26.9267 23.8563V39.6005H22.1018V23.8563H26.9267Z" fill="black"/>
<path d="M13.628 36.1017H6.2356L5.05056 39.6004H0L7.16671 19.7932H12.7534L19.9201 39.6004H14.8131L13.628 36.1017ZM12.3866 32.3773L9.93182 25.1259L7.5053 32.3773H12.3866Z" fill="black"/>
</svg>
