<svg width="40" height="40" viewBox="0 0 40 40" fill="none" xmlns="http://www.w3.org/2000/svg">
<path fill-rule="evenodd" clip-rule="evenodd" d="M19.7831 32.228C19.6475 32.228 19.5209 32.1918 19.4034 32.1285L18.2008 31.4143C18.02 31.3148 18.1104 31.2786 18.1647 31.2606C18.4088 31.1792 18.454 31.1611 18.7072 31.0164C18.7343 30.9983 18.7704 31.0074 18.7976 31.0255L19.7198 31.577C19.756 31.5951 19.8012 31.5951 19.8283 31.577L23.4359 29.4884C23.4721 29.4703 23.4902 29.4342 23.4902 29.3889V25.2208C23.4902 25.1756 23.4721 25.1394 23.4359 25.1213L19.8283 23.0417C19.7921 23.0237 19.7469 23.0237 19.7198 23.0417L16.1122 25.1213C16.0761 25.1394 16.058 25.1846 16.058 25.2208V29.3889C16.058 29.4251 16.0761 29.4703 16.1122 29.4884L17.0978 30.058C17.6312 30.3293 17.9657 30.0128 17.9657 29.6964V25.5824C17.9657 25.5282 18.011 25.4739 18.0742 25.4739H18.5354C18.5896 25.4739 18.6439 25.5191 18.6439 25.5824V29.6964C18.6439 30.4106 18.2551 30.8266 17.577 30.8266C17.369 30.8266 17.2063 30.8266 16.7451 30.6005L15.7958 30.058C15.5607 29.9224 15.416 29.6692 15.416 29.398V25.2298C15.416 24.9586 15.5607 24.7054 15.7958 24.5698L19.4034 22.4812C19.6294 22.3546 19.9368 22.3546 20.1629 22.4812L23.7704 24.5698C24.0055 24.7054 24.1502 24.9586 24.1502 25.2298V29.398C24.1502 29.6692 24.0055 29.9224 23.7704 30.058L20.1629 32.1466C20.0453 32.2009 19.9097 32.228 19.7831 32.228ZM20.8952 29.3618C19.3129 29.3618 18.9874 28.6385 18.9874 28.0237C18.9874 27.9694 19.0327 27.9152 19.0959 27.9152H19.5661C19.6204 27.9152 19.6656 27.9513 19.6656 28.0056C19.7379 28.4848 19.9459 28.7199 20.9043 28.7199C21.6638 28.7199 21.9893 28.5481 21.9893 28.1412C21.9893 27.9061 21.8988 27.7343 20.7144 27.6168C19.7289 27.5173 19.114 27.3003 19.114 26.5137C19.114 25.7813 19.7289 25.3474 20.7596 25.3474C21.9169 25.3474 22.4865 25.7452 22.5589 26.6132C22.5589 26.6403 22.5498 26.6674 22.5317 26.6945C22.5137 26.7126 22.4865 26.7307 22.4594 26.7307H21.9893C21.944 26.7307 21.8988 26.6945 21.8898 26.6493C21.7813 26.1521 21.501 25.9893 20.7596 25.9893C19.9278 25.9893 19.8283 26.2786 19.8283 26.4956C19.8283 26.7578 19.9459 26.8392 21.067 26.9839C22.1791 27.1285 22.7035 27.3365 22.7035 28.1141C22.6945 28.9097 22.0435 29.3618 20.8952 29.3618Z" fill="#539E43"/>
<path fill-rule="evenodd" clip-rule="evenodd" d="M8.58951 15.9261C8.58951 15.7633 8.4991 15.6096 8.35443 15.5282L4.5208 13.3221C4.45751 13.2859 4.38517 13.2678 4.31284 13.2588H4.27667C4.20434 13.2588 4.13201 13.2859 4.06872 13.3221L0.235081 15.5282C0.0904159 15.6096 0 15.7633 0 15.9261L0.00904159 21.8573C0.00904159 21.9387 0.0542496 22.0201 0.126582 22.0563C0.198915 22.1015 0.289331 22.1015 0.352622 22.0563L2.6311 20.7543C2.77577 20.6729 2.86619 20.5192 2.86619 20.3564V17.5807C2.86619 17.4179 2.9566 17.2642 3.10127 17.1828L4.06872 16.6223C4.14105 16.5771 4.22242 16.559 4.3038 16.559C4.38517 16.559 4.46655 16.5771 4.52984 16.6223L5.49729 17.1828C5.64195 17.2642 5.73237 17.4179 5.73237 17.5807V20.3564C5.73237 20.5192 5.82279 20.6729 5.96745 20.7543L8.24593 22.0563C8.31827 22.1015 8.40868 22.1015 8.48101 22.0563C8.55335 22.0201 8.59856 21.9387 8.59856 21.8573L8.58951 15.9261V15.9261V15.9261Z" fill="#333333"/>
<path fill-rule="evenodd" clip-rule="evenodd" d="M27.0164 7.7615C26.944 7.72533 26.8536 7.72533 26.7903 7.7615C26.718 7.80671 26.6728 7.87904 26.6728 7.96041V13.8374C26.6728 13.8917 26.6457 13.9459 26.5914 13.9821C26.5372 14.0092 26.4829 14.0092 26.4287 13.9821L25.4703 13.4306C25.3256 13.3492 25.1538 13.3492 25.0091 13.4306L21.1755 15.6458C21.0308 15.7271 20.9404 15.8808 20.9404 16.0436V20.4649C20.9404 20.6277 21.0308 20.7814 21.1755 20.8628L25.0091 23.078C25.1538 23.1593 25.3256 23.1593 25.4703 23.078L29.3039 20.8628C29.4486 20.7814 29.539 20.6277 29.539 20.4649V9.44324C29.539 9.27145 29.4486 9.11774 29.3039 9.03636L27.0164 7.7615V7.7615V7.7615ZM26.6637 19.0092C26.6637 19.0544 26.6456 19.0906 26.6095 19.1087L25.2984 19.8682C25.2623 19.8863 25.2171 19.8863 25.1809 19.8682L23.8699 19.1087C23.8337 19.0906 23.8156 19.0454 23.8156 19.0092V17.4903C23.8156 17.445 23.8337 17.4089 23.8699 17.3908L25.1809 16.6313C25.2171 16.6132 25.2623 16.6132 25.2984 16.6313L26.6095 17.3908C26.6456 17.4089 26.6637 17.4541 26.6637 17.4903V19.0092V19.0092V19.0092Z" fill="#333333"/>
<path fill-rule="evenodd" clip-rule="evenodd" d="M39.7738 17.4541C39.9185 17.3727 39.9999 17.219 39.9999 17.0563V15.9803C39.9999 15.8176 39.9095 15.6639 39.7738 15.5825L35.9673 13.3763C35.8227 13.295 35.6509 13.295 35.5062 13.3763L31.6726 15.5915C31.5279 15.6729 31.4375 15.8266 31.4375 15.9894V20.4107C31.4375 20.5734 31.5279 20.7272 31.6726 20.8085L35.4791 22.9785C35.6238 23.0599 35.7955 23.0599 35.9312 22.9785L38.2368 21.6946C38.3091 21.6584 38.3543 21.5771 38.3543 21.4957C38.3543 21.4143 38.3091 21.3329 38.2368 21.2968L34.3851 19.0816C34.3127 19.0364 34.2675 18.964 34.2675 18.8827V17.4993C34.2675 17.4179 34.3127 17.3366 34.3851 17.3004L35.5876 16.6132C35.6599 16.568 35.7503 16.568 35.8227 16.6132L37.0252 17.3004C37.0975 17.3456 37.1427 17.4179 37.1427 17.4993V18.5843C37.1427 18.6657 37.188 18.747 37.2603 18.7832C37.3326 18.8284 37.423 18.8284 37.4954 18.7832L39.7738 17.4541V17.4541V17.4541Z" fill="#333333"/>
<path fill-rule="evenodd" clip-rule="evenodd" d="M35.678 17.2461C35.7051 17.228 35.7413 17.228 35.7684 17.2461L36.5008 17.6711C36.5279 17.6891 36.546 17.7163 36.546 17.7524V18.6023C36.546 18.6385 36.5279 18.6656 36.5008 18.6837L35.7684 19.1087C35.7413 19.1268 35.7051 19.1268 35.678 19.1087L34.9456 18.6837C34.9185 18.6656 34.9004 18.6385 34.9004 18.6023V17.7524C34.9004 17.7163 34.9185 17.6891 34.9456 17.6711L35.678 17.2461V17.2461V17.2461Z" fill="#539E43"/>
<path fill-rule="evenodd" clip-rule="evenodd" d="M14.9995 13.3944C14.8549 13.313 14.6831 13.313 14.5384 13.3944L10.7319 15.5915C10.5872 15.6729 10.5059 15.8266 10.5059 15.9893V20.3926C10.5059 20.5553 10.5963 20.7091 10.7319 20.7904L14.5384 22.9875C14.6831 23.0689 14.8549 23.0689 14.9995 22.9875L18.806 20.7904C18.9507 20.7091 19.0321 20.5553 19.0321 20.3926V15.9893C19.0321 15.8266 18.9417 15.6729 18.806 15.5915L14.9995 13.3944V13.3944V13.3944Z" fill="#F6FDFF"/>
<path fill-rule="evenodd" clip-rule="evenodd" d="M14.9995 13.3944C14.8549 13.313 14.6831 13.313 14.5384 13.3944L10.7319 15.5915C10.5872 15.6729 10.5059 15.8266 10.5059 15.9893V20.3926C10.5059 20.5553 10.5963 20.7091 10.7319 20.7904L14.5384 22.9875C14.6831 23.0689 14.8549 23.0689 14.9995 22.9875L18.806 20.7904C18.9507 20.7091 19.0321 20.5553 19.0321 20.3926V15.9893C19.0321 15.8266 18.9417 15.6729 18.806 15.5915L14.9995 13.3944V13.3944V13.3944Z" fill="url(#paint0_linear_2090_273)"/>
<mask id="mask0_2090_273" style="mask-type:luminance" maskUnits="userSpaceOnUse" x="10" y="13" width="10" height="11">
<path fill-rule="evenodd" clip-rule="evenodd" d="M14.9995 13.3944C14.8549 13.313 14.6831 13.313 14.5384 13.3944L10.7319 15.5915C10.5872 15.6729 10.5059 15.8266 10.5059 15.9893V20.3926C10.5059 20.5553 10.5963 20.7091 10.7319 20.7904L14.5384 22.9875C14.6831 23.0689 14.8549 23.0689 14.9995 22.9875L18.806 20.7904C18.9507 20.7091 19.0321 20.5553 19.0321 20.3926V15.9893C19.0321 15.8266 18.9417 15.6729 18.806 15.5915L14.9995 13.3944V13.3944V13.3944Z" fill="white"/>
</mask>
<g mask="url(#mask0_2090_273)">
<path fill-rule="evenodd" clip-rule="evenodd" d="M18.8148 15.5914L14.9902 13.3943C14.954 13.3762 14.9088 13.3582 14.8726 13.3491L10.5869 20.6909C10.6231 20.7361 10.6683 20.7723 10.7135 20.7994L14.5381 22.9965C14.6466 23.0598 14.7732 23.0779 14.8907 23.0417L18.9142 15.6819C18.8871 15.6457 18.8509 15.6186 18.8148 15.5914V15.5914V15.5914Z" fill="url(#paint1_linear_2090_273)"/>
</g>
<mask id="mask1_2090_273" style="mask-type:luminance" maskUnits="userSpaceOnUse" x="10" y="13" width="10" height="11">
<path fill-rule="evenodd" clip-rule="evenodd" d="M14.9995 13.3944C14.8549 13.313 14.6831 13.313 14.5384 13.3944L10.7319 15.5915C10.5872 15.6729 10.5059 15.8266 10.5059 15.9893V20.3926C10.5059 20.5553 10.5963 20.7091 10.7319 20.7904L14.5384 22.9875C14.6831 23.0689 14.8549 23.0689 14.9995 22.9875L18.806 20.7904C18.9507 20.7091 19.0321 20.5553 19.0321 20.3926V15.9893C19.0321 15.8266 18.9417 15.6729 18.806 15.5915L14.9995 13.3944V13.3944V13.3944Z" fill="white"/>
</mask>
<g mask="url(#mask1_2090_273)">
<path fill-rule="evenodd" clip-rule="evenodd" d="M18.8246 20.7904C18.9331 20.7271 19.0145 20.6186 19.0507 20.5011L14.8554 13.3401C14.7469 13.3221 14.6293 13.3311 14.5299 13.3944L10.7324 15.5825L14.8283 23.0508C14.8825 23.0418 14.9458 23.0237 15.0001 22.9966L18.8246 20.7904V20.7904V20.7904Z" fill="url(#paint2_linear_2090_273)"/>
<path fill-rule="evenodd" clip-rule="evenodd" d="M18.8243 20.7904L15.0087 22.9875C14.9545 23.0147 14.9002 23.0328 14.8369 23.0418L14.9092 23.1774L19.1407 20.7271V20.6729L19.0322 20.4921C19.0141 20.6186 18.9328 20.7271 18.8243 20.7904V20.7904V20.7904Z" fill="url(#paint3_linear_2090_273)"/>
<path fill-rule="evenodd" clip-rule="evenodd" d="M18.8243 20.7904L15.0087 22.9875C14.9545 23.0147 14.9002 23.0328 14.8369 23.0418L14.9092 23.1774L19.1407 20.7271V20.6729L19.0322 20.4921C19.0141 20.6186 18.9328 20.7271 18.8243 20.7904V20.7904V20.7904Z" fill="url(#paint4_linear_2090_273)"/>
</g>
<defs>
<linearGradient id="paint0_linear_2090_273" x1="13.9468" y1="13.7973" x2="9.89498" y2="18.7008" gradientUnits="userSpaceOnUse">
<stop stop-color="#41873F"/>
<stop offset="0.3288" stop-color="#418B3D"/>
<stop offset="0.6352" stop-color="#419637"/>
<stop offset="0.9319" stop-color="#3FA92D"/>
<stop offset="1" stop-color="#3FAE2A"/>
</linearGradient>
<linearGradient id="paint1_linear_2090_273" x1="16.4402" y1="24.2046" x2="26.5757" y2="20.1555" gradientUnits="userSpaceOnUse">
<stop offset="0.1376" stop-color="#41873F"/>
<stop offset="0.4032" stop-color="#54A044"/>
<stop offset="0.7136" stop-color="#66B848"/>
<stop offset="0.9081" stop-color="#6CC04A"/>
</linearGradient>
<linearGradient id="paint2_linear_2090_273" x1="10.3673" y1="23.3367" x2="19.1754" y2="23.3367" gradientUnits="userSpaceOnUse">
<stop offset="0.0919165" stop-color="#6CC04A"/>
<stop offset="0.2864" stop-color="#66B848"/>
<stop offset="0.5968" stop-color="#54A044"/>
<stop offset="0.8624" stop-color="#41873F"/>
</linearGradient>
<linearGradient id="paint3_linear_2090_273" x1="10.367" y1="24.59" x2="19.175" y2="24.59" gradientUnits="userSpaceOnUse">
<stop offset="0.0919165" stop-color="#6CC04A"/>
<stop offset="0.2864" stop-color="#66B848"/>
<stop offset="0.5968" stop-color="#54A044"/>
<stop offset="0.8624" stop-color="#41873F"/>
</linearGradient>
<linearGradient id="paint4_linear_2090_273" x1="9.45916" y1="14.1643" x2="8.62874" y2="25.3415" gradientUnits="userSpaceOnUse">
<stop stop-color="#41873F"/>
<stop offset="0.3288" stop-color="#418B3D"/>
<stop offset="0.6352" stop-color="#419637"/>
<stop offset="0.9319" stop-color="#3FA92D"/>
<stop offset="1" stop-color="#3FAE2A"/>
</linearGradient>
</defs>
</svg>
