<svg width="120" height="120" viewBox="0 0 120 120" fill="none" xmlns="http://www.w3.org/2000/svg">
<path d="M92.9316 114.987L92.8227 115.213L92.9316 114.987C91.7964 114.439 90.7996 113.64 90.0151 112.652L90.0093 112.644L90.0029 112.637C87.4977 109.927 68.1712 90.9076 56.3368 79.3198L56.3355 79.3186C55.54 78.5502 54.9039 77.6319 54.4641 76.6159L54.2346 76.7152L54.4641 76.6159C54.0243 75.6004 53.7893 74.5074 53.7728 73.4003C53.7563 72.2933 53.9586 71.1937 54.368 70.1651C54.7773 69.1366 55.3857 68.1997 56.1581 67.4076C56.9304 66.6161 57.8515 65.9851 58.8682 65.5514C59.8848 65.1177 60.977 64.8903 62.082 64.8812C63.1868 64.8722 64.2825 65.0825 65.306 65.4996C66.3296 65.9172 67.2604 66.5331 68.0454 67.3125L68.0464 67.3135L68.1353 67.4006C69.0671 68.3135 77.1215 76.2037 85.1191 84.0862L87.7706 86.7004L88.1961 87.1199V86.5224V45.9219C88.1961 29.9971 75.3709 17.0373 59.6 17.0373C43.8292 17.0373 31.0041 29.9971 31.0041 45.9219V107.428C31.0041 109.655 30.1213 111.79 28.5503 113.364C26.9793 114.938 24.8486 115.822 22.627 115.822C20.4054 115.822 18.2748 114.938 16.7037 113.364C15.1327 111.79 14.25 109.655 14.25 107.428V45.9219C14.25 20.7367 34.5957 0.25 59.6 0.25C84.604 0.25 104.95 20.7367 104.95 45.9219V107.428C104.949 109.655 104.066 111.79 102.494 113.364C100.923 114.938 98.7922 115.822 96.5704 115.823C95.31 115.822 94.0662 115.536 92.9316 114.987Z" fill="url(#paint0_linear_1_2)" stroke="#412E2E" stroke-width="0.5"/>
<path d="M69.21 44.3518C69.21 49.67 64.9074 53.9802 59.6006 53.9802C54.2938 53.9802 49.991 49.67 49.991 44.3518C49.991 39.0337 54.2938 34.7233 59.6006 34.7233C64.9074 34.7233 69.21 39.0337 69.21 44.3518Z" fill="url(#paint1_linear_1_2)" stroke="#412E2E" stroke-width="0.5"/>
<defs>
<linearGradient id="paint0_linear_1_2" x1="59.6" y1="117.466" x2="59.6" y2="0.348213" gradientUnits="userSpaceOnUse">
<stop offset="0.01" stop-color="#847DF6"/>
<stop offset="0.7" stop-color="#A9A4F9"/>
</linearGradient>
<linearGradient id="paint1_linear_1_2" x1="59.6006" y1="117.434" x2="59.6006" y2="0.332817" gradientUnits="userSpaceOnUse">
<stop stop-color="#A9A4F9"/>
<stop offset="1" stop-color="#847DF6"/>
</linearGradient>
</defs>
</svg>
