<svg xmlns="http://www.w3.org/2000/svg" width="116" height="60" fill="none"><path fill="#fff" d="M1.878 7.139h3.658v3.03l2.995-3.03h4.32l2.473 2.507 2.508-2.507h5.852l3.554 3.587V24.48H23.3V11.875l-1.358-1.358h-3.24l-2.02 2.02V24.48H12.85V11.84l-1.324-1.323H9.16l-3.345 3.377v10.587H1.878V7.139Zm29.175-3.726v-2.02L32.481 0h2.125l1.429 1.393v2.02l-1.429 1.393h-2.125l-1.428-1.393Zm.523 3.726h3.936V24.48h-3.936V7.139Zm8.106 13.894V10.586l3.413-3.447h9.162l3.449 3.482v2.855h-3.937v-1.601l-1.393-1.358H45.01l-1.393 1.358v7.87l1.393 1.358h5.365l1.393-1.358v-1.602h3.937v2.855l-3.45 3.483h-9.16l-3.414-3.448ZM58.834 7.139h3.657v2.96l2.892-2.96h4.807v3.378h-3.936l-3.484 3.552V24.48h-3.936V7.139Zm12.4 13.859V10.621l3.449-3.482h36.611l3.483 3.482v10.377l-3.483 3.483H74.683l-3.449-3.483Zm38.213.174 1.394-1.393v-7.94l-1.394-1.392H76.564L75.17 11.84v7.94l1.394 1.392h32.883ZM3.446 38.34H.31v-3.343h3.135V31.41l3.344-3.343h5.956v3.274h-4.25L7.313 32.49v2.507h5.434v3.343H7.382v14H3.446v-14Zm10.318 10.9v-4.11l3.1-3.064h8.953V39.49l-1.29-1.288H19.06l-1.289 1.288v1.115h-3.867v-2.02l3.553-3.587h8.674l3.553 3.587V52.34h-3.588v-2.681l-2.786 2.68h-6.445l-3.1-3.098Zm9.162 0 2.89-2.786V44.99h-7.07l-1.115 1.08v2.124l1.045 1.045h4.25Zm10.428-.348V38.445l3.414-3.448h9.161l3.45 3.482v2.856h-3.937v-1.602l-1.394-1.358h-5.364l-1.393 1.358v7.87l1.393 1.358h5.364l1.394-1.358v-1.602h3.936v2.856l-3.449 3.482h-9.16l-3.415-3.447Zm20.72 0V38.34h-3.135v-3.343h3.205v-5.641h3.866v5.641h5.33v3.343h-5.33v9.298l1.359 1.358h3.971v3.343h-5.817l-3.449-3.447Zm11.377-.035V38.479l3.449-3.482h9.614l3.483 3.482v10.378l-3.483 3.482H68.9l-3.449-3.482Zm11.217.174 1.393-1.393v-7.94l-1.393-1.393H70.78l-1.394 1.393v7.94l1.394 1.393h5.887Zm9.16-14.034h3.657v2.96l2.892-2.96h4.807v3.378h-3.936l-3.484 3.552v10.412h-3.936V34.997Zm29.483 0v21.451L111.723 60h-8.848l-3.066-3.03v-2.298h3.936v1.15l.837.87h5.434l1.358-1.393v-5.92l-2.926 2.96h-5.608l-3.553-3.587V34.997h3.936v12.606l1.359 1.358h3.169l3.623-3.76V34.996h3.937Z"/></svg>