<svg width="119" height="33" viewBox="0 0 119 33" fill="none" xmlns="http://www.w3.org/2000/svg">
<path d="M27.0601 28.9658C27.0601 28.9658 27.0601 21.2825 27.0601 5.91602C27.0601 5.91602 28.9651 5.91602 32.7731 5.91602C34.3481 5.91602 35.582 6.00232 36.475 6.17492C37.379 6.34762 38.1761 6.65232 38.8671 7.08902C39.8021 7.69842 40.5231 8.51602 41.0301 9.54182C41.5381 10.5676 41.7921 11.7254 41.7921 13.0152C41.7921 14.3864 41.5031 15.6305 40.9241 16.7477C40.3551 17.8649 39.5731 18.7028 38.5781 19.2614C37.9481 19.6067 37.2011 19.8505 36.3381 19.9927C35.4751 20.1349 34.266 20.2059 32.712 20.2059H31.3411V28.9658H27.0601ZM31.3411 16.1079H32.5911C33.8911 16.1079 34.8661 16.0063 35.5161 15.8032C36.1251 15.6305 36.6021 15.3055 36.9481 14.8282C37.3031 14.3508 37.4811 13.7821 37.4811 13.1219C37.4811 12.3906 37.3031 11.766 36.9481 11.248C36.5921 10.7301 36.105 10.3848 35.485 10.2121C34.876 10.0699 33.9721 9.99881 32.7731 9.99881H31.3411V16.1079ZM44.428 28.9658C44.428 28.9658 44.428 21.2825 44.428 5.91602C44.428 5.91602 45.8091 5.91602 48.5721 5.91602C48.5721 5.91602 48.5721 8.23162 48.5721 12.8629C49.7601 11.7863 51.2271 11.248 52.9741 11.248C54.2441 11.248 55.3711 11.4969 56.3561 11.9945C57.3521 12.482 58.1291 13.1879 58.6871 14.1121C59.0731 14.752 59.3421 15.4528 59.4951 16.2145C59.6571 16.9762 59.738 17.9715 59.738 19.2005V28.9658H55.595C55.595 28.9658 55.595 26.0205 55.595 20.1298C55.595 18.3016 55.3361 17.0067 54.8181 16.245C54.3101 15.4731 53.4471 15.0871 52.2281 15.0871C50.7551 15.0871 49.7241 15.6661 49.1351 16.8239C48.7591 17.5044 48.5721 18.6317 48.5721 20.2059V28.9658C48.5721 28.9658 47.19 28.9658 44.428 28.9658ZM63.0441 28.9658C63.0441 28.9658 63.0441 21.2825 63.0441 5.91602C63.0441 5.91602 64.426 5.91602 67.188 5.91602C67.188 5.91602 67.188 13.5992 67.188 28.9658C67.188 28.9658 65.8071 28.9658 63.0441 28.9658ZM87.9991 11.6746C87.9991 11.6746 87.9991 17.4383 87.9991 28.9658C87.9991 28.9658 86.7341 28.9658 84.2051 28.9658C84.2051 28.9658 84.2051 28.2193 84.2051 26.7263C83.3721 27.6709 82.5091 28.3513 81.6151 28.7678C80.7321 29.174 79.68 29.3771 78.462 29.3771C76.796 29.3771 75.2981 28.9963 73.9681 28.2345C72.6471 27.4627 71.611 26.3912 70.86 25.0201C70.118 23.649 69.748 22.1052 69.748 20.3888C69.748 18.652 70.1231 17.093 70.8751 15.7118C71.6261 14.3203 72.6731 13.2336 74.0131 12.4516C75.3541 11.6695 76.867 11.2785 78.553 11.2785C79.802 11.2785 80.8791 11.4969 81.7831 11.9336C82.6871 12.3602 83.4941 13.0457 84.2051 13.9903V11.6746H87.9991ZM78.9191 15.0871C77.4771 15.0871 76.2831 15.595 75.3391 16.6106C74.4041 17.6262 73.9371 18.9161 73.9371 20.4802C73.9371 21.9935 74.4091 23.2224 75.3541 24.1669C76.3091 25.1013 77.5431 25.5685 79.0561 25.5685C80.5591 25.5685 81.7681 25.0912 82.6821 24.1365C83.6061 23.1818 84.0681 21.9325 84.0681 20.3888C84.0681 18.8247 83.586 17.5501 82.621 16.5649C81.666 15.5797 80.4321 15.0871 78.9191 15.0871ZM91.381 28.9658C91.381 28.9658 91.381 23.2021 91.381 11.6746C91.381 11.6746 92.6451 11.6746 95.1741 11.6746C95.1741 11.6746 95.1741 12.2383 95.1741 13.3656C95.7221 12.5633 96.2611 12.0148 96.7891 11.7203C97.3171 11.4258 98.0281 11.2785 98.9221 11.2785H99.2421C99.2421 11.2785 99.2421 12.609 99.2421 15.27C96.7631 15.3309 95.524 16.6918 95.524 19.3528C95.524 19.3528 95.524 22.5571 95.524 28.9658C95.524 28.9658 94.143 28.9658 91.381 28.9658ZM118.041 22.1712C118.041 22.1712 113.577 22.1712 104.65 22.1712C104.904 23.2173 105.457 24.0451 106.31 24.6544C107.164 25.2638 108.205 25.5685 109.433 25.5685C110.287 25.5685 110.998 25.4415 111.566 25.1876C112.135 24.9236 112.689 24.4767 113.227 23.847H117.752C117.508 24.629 117.051 25.4314 116.38 26.2541C114.593 28.3361 112.308 29.3771 109.525 29.3771C108.225 29.3771 106.996 29.1435 105.838 28.6763C104.68 28.2092 103.685 27.5795 102.852 26.7873C102.03 25.9849 101.374 25.0302 100.887 23.9232C100.399 22.806 100.156 21.6278 100.156 20.3888C100.156 18.7231 100.557 17.1946 101.359 15.8032C102.172 14.4016 103.274 13.2996 104.665 12.4973C106.067 11.6848 107.6 11.2785 109.266 11.2785C110.962 11.2785 112.491 11.6797 113.852 12.482C115.212 13.2742 116.274 14.3813 117.036 15.8032C117.807 17.2149 118.193 18.8044 118.193 20.5716C118.193 21.1403 118.143 21.6735 118.041 22.1712ZM104.528 18.5149H114.11C113.846 17.4079 113.303 16.5598 112.48 15.9707C111.658 15.3817 110.607 15.0871 109.327 15.0871C108.088 15.0871 107.057 15.3817 106.234 15.9707C105.422 16.5497 104.853 17.3977 104.528 18.5149Z" fill="black"/>
<path d="M0.87684 26.9074C3.41584 32.2099 8.71784 32.6611 8.71784 32.6611C8.71784 32.6611 11.8578 32.8429 13.7378 32.2663C17.8488 31.0058 20.2848 27.5972 21.4668 24.4254C23.1158 19.9985 19.2668 13.369 14.2458 9.4768C9.2258 5.5844 12.6629 0 12.6629 0C7.01885 1.2972 5.33285 7.8408 8.26685 12.692C11.1999 17.5433 9.45182 21.8305 5.50282 21.5485C1.55382 21.2663 2.11781 15.174 2.11781 15.174C2.11781 15.174 -1.66116 21.6046 0.87684 26.9074Z" fill="url(#paint0_linear_13005_15660)"/>
<defs>
<linearGradient id="paint0_linear_13005_15660" x1="-0.000165673" y1="16.3441" x2="21.7748" y2="16.3441" gradientUnits="userSpaceOnUse">
<stop stop-color="#B31329"/>
<stop offset="0.3297" stop-color="#FA273B"/>
<stop offset="0.4048" stop-color="#FB442F"/>
<stop offset="0.5286" stop-color="#FC6D1E"/>
<stop offset="0.6498" stop-color="#FE8D11"/>
<stop offset="0.766" stop-color="#FEA408"/>
<stop offset="0.8751" stop-color="#FFB202"/>
<stop offset="0.9697" stop-color="#FFB700"/>
</linearGradient>
</defs>
</svg>
