<svg width="259" height="52" viewBox="0 0 259 52" fill="none" xmlns="http://www.w3.org/2000/svg">
<path d="M72.8422 29.2024H69.0169V37.3732H62.7539V14.4698H72.8349C78.4837 14.4698 81.5237 18.0831 81.5237 21.8361C81.5237 25.5891 78.4909 29.2024 72.8422 29.2024ZM72.5555 19.5188H69.0169V24.1438H72.5555C74.273 24.1438 75.2751 23.0164 75.2751 21.8265C75.2751 20.6365 74.273 19.5212 72.5555 19.5212V19.5188Z" fill="black"/>
<path d="M83.7461 37.3756V14.4698H90.0091V37.3756H83.7461Z" fill="black"/>
<path d="M102.551 37.5683C99.5836 37.5683 97.3313 36.6674 95.4717 34.9932C92.7907 32.5844 92.899 29.3637 92.899 25.9215C92.899 22.4792 92.7907 19.2634 95.4717 16.8497C97.3362 15.178 99.5836 14.2675 102.551 14.2675C107.369 14.2675 111.276 16.6763 112.204 21.7349H105.842C105.447 20.4486 104.659 19.2899 102.587 19.2899C101.443 19.2899 100.586 19.709 100.121 20.2534C99.5475 20.9279 99.1572 21.7325 99.1572 25.9142C99.1572 30.096 99.5499 30.9006 100.121 31.5775C100.586 32.1243 101.443 32.541 102.587 32.541C104.659 32.541 105.447 31.3823 105.842 30.0936H112.204C111.276 35.1546 107.379 37.5683 102.551 37.5683Z" fill="black"/>
<path d="M128.255 37.3756L122.392 27.9811L120.246 30.1996V37.3756H114.062V14.4698H120.246V22.5756L127.612 14.4698H135.263L126.576 23.7343L135.549 37.3756H128.255Z" fill="black"/>
<path d="M136.695 37.3756V14.4698H142.958V32.3556H153.649V37.3756H136.695Z" fill="black"/>
<path d="M155.859 37.3756V14.4698H173.165V19.4875H162.115V23.3151H171.555V28.3352H162.115V32.3556H173.165V37.3756H155.859Z" fill="black"/>
<path d="M176.496 37.3756V33.7792L187.365 18.4661H176.961V14.4698H193.228V18.0084L182.323 33.3865H193.228V37.3756H176.496Z" fill="black"/>
<path d="M211.495 35.1233C209.744 36.6987 207.492 37.5683 204.775 37.5683C202.058 37.5683 199.841 36.6987 198.088 35.1233C195.587 32.871 195.621 30.3297 195.621 25.9215C195.621 21.5133 195.587 18.9719 198.088 16.7221C199.841 15.1443 202.058 14.2675 204.772 14.2675C207.487 14.2675 209.742 15.1346 211.493 16.7124C213.996 18.9623 213.924 21.506 213.924 25.9118C213.924 30.3176 213.998 32.871 211.495 35.1233ZM208.564 18.813C207.663 17.9434 206.275 17.399 204.772 17.399C203.269 17.399 201.882 17.9458 200.981 18.8154C199.731 20.0367 199.48 21.3254 199.48 25.9239C199.48 30.5224 199.721 31.8111 200.981 33.0348C201.877 33.902 203.269 34.4488 204.772 34.4488C206.275 34.4488 207.663 33.902 208.561 33.0348C209.812 31.8111 210.062 30.5248 210.062 25.9239C210.062 21.323 209.814 20.0342 208.564 18.813Z" fill="black"/>
<path d="M234.805 37.3756L221.291 19.0057V37.3756H218.574V14.4698H221.152L234.668 32.7771V14.4698H237.385V37.3756H234.805Z" fill="black"/>
<path d="M243.555 14.47H259V16.014H245.487V25.0545H256.998V26.5985H245.487V35.8317H259V37.3757H243.555V14.47Z" fill="black"/>
<path d="M32.8469 23.6623C32.4061 24.0959 32.3411 24.7438 32.7024 25.1076C33.0637 25.4713 33.7141 25.4255 34.1477 24.9919C34.5813 24.5584 34.6536 23.9104 34.2923 23.5466C33.9309 23.1829 33.2878 23.2239 32.8469 23.6623Z" fill="black"/>
<path d="M37.0701 23.2235C36.7955 23.9775 36.7931 24.6688 37.0701 24.77C37.3472 24.8712 37.7928 24.3388 38.0626 23.5824C38.3324 22.8261 38.3372 22.1371 38.0626 22.036C37.788 21.9348 37.3568 22.4575 37.0701 23.2235Z" fill="black"/>
<path d="M37.7702 18.042C38.0231 17.8974 37.9002 17.2157 37.498 16.5196C37.0957 15.8234 36.5681 15.3778 36.3152 15.5223C36.0623 15.6669 36.1851 16.351 36.5874 17.0447C36.9897 17.7385 37.5196 18.1865 37.7702 18.042Z" fill="black"/>
<path d="M30.2033 19.5335C29.9828 19.5359 29.7679 19.6035 29.5857 19.7277C29.4035 19.852 29.2621 20.0273 29.1793 20.2318C29.0966 20.4362 29.0761 20.6605 29.1206 20.8766C29.1651 21.0926 29.2725 21.2906 29.4293 21.4457C29.5861 21.6008 29.7852 21.7061 30.0017 21.7482C30.2182 21.7904 30.4423 21.7676 30.6458 21.6826C30.8494 21.5977 31.0232 21.4544 31.1455 21.2709C31.2678 21.0874 31.3331 20.8718 31.3331 20.6512C31.3331 20.5034 31.3038 20.3571 31.2468 20.2207C31.1899 20.0843 31.1065 19.9605 31.0015 19.8566C30.8964 19.7526 30.7717 19.6706 30.6347 19.6151C30.4977 19.5597 30.3511 19.5319 30.2033 19.5335Z" fill="black"/>
<path d="M22.2022 20.5147C21.9179 20.5653 21.7975 21.2373 21.9372 22.0395C22.0769 22.8416 22.419 23.4318 22.708 23.3812C22.9971 23.3306 23.1127 22.6465 22.9754 21.8564C22.8381 21.0663 22.4888 20.4641 22.2022 20.5147Z" fill="black"/>
<path d="M29.5989 24.6051C28.9846 24.5449 28.445 24.9134 28.3944 25.4265C28.3439 25.9396 28.8015 26.4045 29.4182 26.4647C30.0349 26.5249 30.572 26.1564 30.6226 25.6433C30.6732 25.1302 30.2131 24.6653 29.5989 24.6051Z" fill="black"/>
<path d="M34.2034 20.559C34.2515 21.1757 34.7068 21.643 35.2223 21.6045C35.7378 21.5659 36.1136 21.0312 36.0654 20.4169C36.0172 19.8027 35.5644 19.3329 35.0489 19.3715C34.5334 19.41 34.1552 19.9448 34.2034 20.559Z" fill="black"/>
<path d="M32.6486 27.5613C31.8946 27.8359 31.3623 28.284 31.461 28.5538C31.5598 28.8236 32.2535 28.826 33.0075 28.5538C33.7615 28.2816 34.2938 27.8311 34.1951 27.5613C34.0963 27.2915 33.4025 27.2867 32.6486 27.5613Z" fill="black"/>
<path d="M23.2938 16.662C23.5178 16.8499 24.1152 16.5006 24.6331 15.8863C25.151 15.2721 25.387 14.6217 25.163 14.441C24.939 14.2604 24.3416 14.6024 23.8261 15.2167C23.3106 15.8309 23.0721 16.4741 23.2938 16.662Z" fill="black"/>
<path d="M24.6146 18.8667C24.4508 19.4617 24.7181 20.0566 25.2144 20.1964C25.7106 20.3361 26.2502 19.9555 26.4188 19.3701C26.5874 18.7848 26.3152 18.1801 25.819 18.0404C25.3228 17.9007 24.7808 18.2717 24.6146 18.8667Z" fill="black"/>
<path d="M25.3857 22.3345C24.9593 22.626 24.9039 23.274 25.2484 23.7798C25.5928 24.2857 26.2264 24.4663 26.6503 24.1749C27.0743 23.8834 27.1321 23.233 26.79 22.7296C26.448 22.2261 25.812 22.0406 25.3857 22.3345Z" fill="black"/>
<path d="M32.7035 17.529C33.207 17.8903 33.8574 17.8397 34.1489 17.4206C34.4403 17.0014 34.2837 16.3703 33.7827 16.009C33.2817 15.6477 32.6289 15.6982 32.3374 16.1198C32.0459 16.5413 32.2025 17.1701 32.7035 17.529Z" fill="black"/>
<path d="M43.8603 0.821289H6.50389C4.77895 0.821289 3.12466 1.50652 1.90495 2.72624C0.68523 3.94595 0 5.60024 0 7.32518V44.6744C0 46.3993 0.68523 48.0536 1.90495 49.2733C3.12466 50.4931 4.77895 51.1783 6.50389 51.1783H43.8603C45.5853 51.1783 47.2396 50.4931 48.4593 49.2733C49.679 48.0536 50.3642 46.3993 50.3642 44.6744V7.32037C50.363 5.59626 49.6772 3.94321 48.4576 2.72453C47.238 1.50586 45.5844 0.821289 43.8603 0.821289ZM3.7024 44.3323C3.42257 44.2634 3.12954 44.2692 2.85264 44.3491C2.57574 44.429 2.32468 44.5802 2.12461 44.7876C2.02095 44.8951 1.93186 45.0158 1.85963 45.1465C1.84279 44.9865 1.83475 44.8257 1.83554 44.6648V7.32037C1.83682 6.08241 2.32899 4.89549 3.20413 4.0199C4.07927 3.14431 5.26594 2.65152 6.50389 2.64961H28.5425C27.2803 3.18477 26.1384 3.96786 25.1845 4.95247L17.428 12.9498C15.501 14.9468 11.0638 20.2703 12.7163 25.6903C13.7834 29.1903 13.8894 31.5341 13.7377 32.9987C13.5506 33.0791 13.3806 33.1944 13.2366 33.3384C13.0349 33.5452 12.8904 33.801 12.8174 34.0806C12.7443 34.3601 12.7452 34.6539 12.8199 34.933L3.7024 44.3323ZM30.2046 11.6178C31.9898 11.6173 33.7352 12.1462 35.2198 13.1377C36.7044 14.1292 37.8617 15.5387 38.5452 17.188C39.2287 18.8372 39.4078 20.6521 39.0598 22.4031C38.7118 24.1541 37.8524 25.7626 36.5901 27.0252C35.3279 28.2877 33.7197 29.1476 31.9687 29.4961C30.2178 29.8445 28.4029 29.6659 26.7535 28.9828C25.104 28.2998 23.6942 27.1429 22.7023 25.6585C21.7104 24.1742 21.181 22.429 21.181 20.6437C21.1817 18.2505 22.1325 15.9554 23.8245 14.263C25.5166 12.5705 27.8113 11.619 30.2046 11.6178ZM48.5287 44.6672C48.5287 45.906 48.0371 47.0941 47.1618 47.9708C46.2865 48.8474 45.0991 49.3408 43.8603 49.3427H6.76405L6.79777 49.3114C6.99968 49.1058 7.14366 48.8504 7.21515 48.5713C7.28664 48.2921 7.28309 47.999 7.20487 47.7216L16.3224 38.3271C16.6043 38.3921 16.8981 38.3834 17.1757 38.302C17.4533 38.2206 17.7053 38.0691 17.9074 37.8622C18.0485 37.711 18.1597 37.5345 18.235 37.3419C19.6948 37.1467 22.0386 37.1853 25.5579 38.144C31.026 39.6303 36.2146 35.0438 38.1514 33.0469L45.9079 25.0495C47.2075 23.7138 48.1164 22.0476 48.5359 20.2318L48.5287 44.6672ZM48.5287 15.5418C48.0847 13.6157 47.0935 11.8589 45.6742 10.4832L42.7065 7.61906L39.7388 4.72844C38.8263 3.8422 37.7571 3.13321 36.5856 2.63756H43.8603C45.0987 2.63884 46.286 3.13134 47.1617 4.007C48.0373 4.88266 48.5298 6.06995 48.5311 7.30832L48.5287 15.5418Z" fill="black"/>
<path d="M24.9576 26.6921C24.8107 26.933 25.2587 27.4749 25.9525 27.8748C26.6462 28.2747 27.3303 28.3975 27.4748 28.147C27.6194 27.8965 27.1762 27.3665 26.48 26.9643C25.7838 26.562 25.1021 26.4415 24.9576 26.6921Z" fill="black"/>
<path d="M30.2734 13.3205C31.0756 13.3205 31.7187 13.0796 31.7187 12.7954C31.7187 12.5111 31.0659 12.2678 30.2734 12.2678C29.4809 12.2678 28.8281 12.5087 28.8281 12.7954C28.8281 13.082 29.4713 13.3205 30.2734 13.3205Z" fill="black"/>
<path d="M28.7529 16.9172C29.3166 16.6619 29.5984 16.0741 29.3864 15.6044C29.1744 15.1347 28.5433 14.9612 27.9821 15.2166C27.4208 15.4719 27.1342 16.0597 27.3485 16.5294C27.5629 16.9991 28.2037 17.1798 28.7529 16.9172Z" fill="black"/>
</svg>
