<?xml version="1.0" encoding="UTF-8"?>
<svg xmlns="http://www.w3.org/2000/svg" version="1.1" viewBox="0 0 1080 202.2">
  <!-- Generator: Adobe Illustrator 28.7.5, SVG Export Plug-In . SVG Version: 1.2.0 Build 176)  -->
  <g>
    <g id="Layer_1">
      <g>
        <path d="M35.1,101.1c0-28.4,6.2-54.1,16.2-72.5C45.8,10.9,38.4,0,30.2,0,13.5,0,0,45.3,0,101.1s13.5,101.1,30.2,101.1,15.6-10.9,21.1-28.6c-10-18.4-16.2-44-16.2-72.5Z"/>
        <path d="M116.6,101.1c0-34.9,15.3-65.7,38-83.8C144.9,6.4,133.3,0,120.8,0,87.4,0,60.4,45.3,60.4,101.1s27,101.1,60.4,101.1,24.1-6.4,33.8-17.3c-22.7-18.2-38-48.9-38-83.8Z"/>
        <circle cx="234.7" cy="101.1" r="101.1"/>
        <g>
          <path d="M398.4,107.4V37.4h28.3v25.9h40.6v25.2h-40.6v23.1c0,28.5,9.9,40.3,40.6,40.3v27.8c-49.3,0-68.8-23.6-68.8-72.4Z"/>
          <path d="M511.5,179.8h-28.3v-54.9c0-40.8,24.5-64.1,63-64.1v27.6c-20.7.2-34.7,12.5-34.7,33v58.5Z"/>
          <path d="M617.4,59.6c37,0,62,24.5,62,61.3s-25,61.3-62,61.3-62-24.5-62-61.3,24.8-61.3,62-61.3ZM617.4,155.5c20,0,33.7-14.1,33.7-34.7s-13.7-34.7-33.7-34.7-34,13.9-34,34.7,13.7,34.7,34,34.7Z"/>
          <path d="M696.6,61.9h28.3v90.8c10.8,0,49-3.8,49-60.6v-30.2h28.5v28.1c0,59.4-33.5,89.8-80.2,89.8h-25.7V61.9Z"/>
          <path d="M845.9,125.1c.7,18.2,13.7,31.4,34.4,31.4s26.4-8,29.9-19.8h29c-5.2,29.2-27.1,45.5-59.7,45.5s-62-24.5-62-61.3,24.8-61.3,62-61.3,59.7,21.5,59.7,58.5v7.1h-93.4ZM909.5,106c-2.4-14.1-13.2-23.3-29.7-23.3s-28.3,10.4-32.5,23.3h62.2Z"/>
          <path d="M1018,59.6c37,0,62,24.5,62,61.3s-25,61.3-62,61.3-62-24.5-62-61.3,24.8-61.3,62-61.3ZM1018,155.5c20,0,33.7-14.1,33.7-34.7s-13.7-34.7-33.7-34.7-34,13.9-34,34.7,13.7,34.7,34,34.7Z"/>
        </g>
      </g>
    </g>
  </g>
</svg>