<svg xmlns="http://www.w3.org/2000/svg" width="1053" height="277" fill="none"><rect width="187.997" height="187.758" x="5.655" y="135.405" stroke="#fff" stroke-width="8" rx="27" transform="rotate(-43.643 5.655 135.405)"/><rect width="129.061" height="128.894" x="47.245" y="136.407" stroke="#fff" stroke-width="8" rx="27" transform="rotate(-43.643 47.245 136.407)"/><rect width="70.596" height="70.5" x="88.155" y="137.042" stroke="#fff" stroke-width="8" rx="17" transform="rotate(-43.643 88.155 137.042)"/><path stroke="#fff" stroke-width="8" d="m119.828 69.222 34.649 34.649m60.695 48.949 34.648-34.648M28.172 156.82l34.648-34.648m60.008 52 33.143 33.142"/><mask id="a" width="714" height="163" x="323" y="58" fill="#000" maskUnits="userSpaceOnUse"><path fill="#fff" d="M323 58h714v163H323z"/><path d="m344.466 59.91 46.636 132.238h1.841L439.58 59.909h19.943L401.841 217h-19.636L324.523 59.91zm211.321 108.92V99.182h18.102V217h-18.102v-19.943h-1.227q-4.142 8.975-12.887 15.264-8.744 6.213-22.091 6.213-11.045 0-19.636-4.832-8.59-4.91-13.5-14.728-4.91-9.894-4.909-24.929V99.182h18.102v73.636q0 12.886 7.21 20.557 7.287 7.67 18.563 7.67 6.75 0 13.73-3.451 7.057-3.452 11.813-10.585 4.832-7.134 4.832-18.179m69.36-108.92V217h-18.102V59.91zm84.394 39.272v15.341h-61.057V99.182zM666.28 70.954h18.102V183.25q0 7.67 2.225 11.506 2.301 3.758 5.829 5.062 3.605 1.227 7.594 1.227 2.992 0 4.909-.306l3.068-.614 3.682 16.261q-1.84.691-5.139 1.381-3.298.767-8.361.767-7.67 0-15.034-3.298-7.287-3.298-12.119-10.048-4.756-6.75-4.756-17.029zM736.771 217V99.182h17.489v17.795h1.227q3.222-8.743 11.659-14.19t19.023-5.446q1.995 0 4.986.077 2.992.075 4.525.23v18.409q-.92-.23-4.218-.691-3.222-.536-6.827-.536-8.59 0-15.341 3.605-6.673 3.528-10.585 9.818-3.835 6.213-3.835 14.19V217zm124.645 2.455q-15.955 0-27.997-7.594-11.966-7.594-18.716-21.247-6.673-13.654-6.673-31.909 0-18.41 6.673-32.14 6.75-13.73 18.716-21.324 12.043-7.593 27.997-7.593t27.921 7.593q12.042 7.595 18.716 21.324 6.75 13.73 6.75 32.14 0 18.255-6.75 31.909-6.674 13.653-18.716 21.247-11.966 7.594-27.921 7.594m0-16.262q12.12 0 19.943-6.213t11.583-16.338q3.758-10.125 3.758-21.937t-3.758-22.015q-3.759-10.201-11.583-16.491t-19.943-6.29-19.943 6.29-11.582 16.491q-3.759 10.202-3.759 22.015 0 11.812 3.759 21.937t11.582 16.338 19.943 6.213m99.122-57.068V217h-18.103V99.182h17.489v18.409h1.534q4.142-8.975 12.58-14.421 8.437-5.522 21.784-5.522 11.967 0 20.938 4.909c5.99 3.221 10.64 8.131 13.96 14.727 3.33 6.546 4.99 14.83 4.99 24.852V217h-18.1v-73.636c0-9.256-2.41-16.466-7.21-21.631q-7.215-7.824-19.794-7.824-8.668 0-15.494 3.759-6.75 3.758-10.662 10.968t-3.912 17.489"/></mask><path fill="#fff" d="m344.466 59.91 46.636 132.238h1.841L439.58 59.909h19.943L401.841 217h-19.636L324.523 59.91zm211.321 108.92V99.182h18.102V217h-18.102v-19.943h-1.227q-4.142 8.975-12.887 15.264-8.744 6.213-22.091 6.213-11.045 0-19.636-4.832-8.59-4.91-13.5-14.728-4.91-9.894-4.909-24.929V99.182h18.102v73.636q0 12.886 7.21 20.557 7.287 7.67 18.563 7.67 6.75 0 13.73-3.451 7.057-3.452 11.813-10.585 4.832-7.134 4.832-18.179m69.36-108.92V217h-18.102V59.91zm84.394 39.272v15.341h-61.057V99.182zM666.28 70.954h18.102V183.25q0 7.67 2.225 11.506 2.301 3.758 5.829 5.062 3.605 1.227 7.594 1.227 2.992 0 4.909-.306l3.068-.614 3.682 16.261q-1.84.691-5.139 1.381-3.298.767-8.361.767-7.67 0-15.034-3.298-7.287-3.298-12.119-10.048-4.756-6.75-4.756-17.029zM736.771 217V99.182h17.489v17.795h1.227q3.222-8.743 11.659-14.19t19.023-5.446q1.995 0 4.986.077 2.992.075 4.525.23v18.409q-.92-.23-4.218-.691-3.222-.536-6.827-.536-8.59 0-15.341 3.605-6.673 3.528-10.585 9.818-3.835 6.213-3.835 14.19V217zm124.645 2.455q-15.955 0-27.997-7.594-11.966-7.594-18.716-21.247-6.673-13.654-6.673-31.909 0-18.41 6.673-32.14 6.75-13.73 18.716-21.324 12.043-7.593 27.997-7.593t27.921 7.593q12.042 7.595 18.716 21.324 6.75 13.73 6.75 32.14 0 18.255-6.75 31.909-6.674 13.653-18.716 21.247-11.966 7.594-27.921 7.594m0-16.262q12.12 0 19.943-6.213t11.583-16.338q3.758-10.125 3.758-21.937t-3.758-22.015q-3.759-10.201-11.583-16.491t-19.943-6.29-19.943 6.29-11.582 16.491q-3.759 10.202-3.759 22.015 0 11.812 3.759 21.937t11.582 16.338 19.943 6.213m99.122-57.068V217h-18.103V99.182h17.489v18.409h1.534q4.142-8.975 12.58-14.421 8.437-5.522 21.784-5.522 11.967 0 20.938 4.909c5.99 3.221 10.64 8.131 13.96 14.727 3.33 6.546 4.99 14.83 4.99 24.852V217h-18.1v-73.636c0-9.256-2.41-16.466-7.21-21.631q-7.215-7.824-19.794-7.824-8.668 0-15.494 3.759-6.75 3.758-10.662 10.968t-3.912 17.489"/><path fill="#fff" d="m344.466 59.91.943-.333-.235-.668h-.708zm46.636 132.238-.943.332.236.668h.707zm1.841 0v1h.708l.235-.668zM439.58 59.909v-1h-.708l-.236.668zm19.943 0 .938.345.494-1.345h-1.432zM401.841 217v1h.698l.241-.655zm-19.636 0-.939.345.24.655h.699zM324.523 59.91v-1h-1.433l.494 1.344zm19 .332 46.636 132.238 1.886-.665-46.636-132.238zm47.579 132.906h1.841v-2h-1.841zm2.784-.668 46.637-132.238-1.887-.665L392 191.815zM439.58 60.91h19.943v-2H439.58zm19.004-1.346-57.682 157.091 1.878.69 57.681-157.091zM401.841 216h-19.636v2h19.636zm-18.698.655-57.682-157.09-1.877.689 57.682 157.091zm-58.62-155.746h19.943v-2h-19.943zm231.264 38.273v-1h-1v1zm18.102 0h1v-1h-1zm0 117.818v1h1v-1zm-18.102 0h-1v1h1zm0-19.943h1v-1h-1zm-1.227 0v-1h-.64l-.268.581zm-12.887 15.264.58.815.004-.003zm-41.727 1.381-.496.868.006.003zm-13.5-14.728-.896.445.002.003zm-4.909-99.792v-1h-1v1zm18.102 0h1v-1h-1zm7.21 94.193-.728.685.003.004zm32.293 4.219-.439-.899-.004.002zm11.813-10.585-.828-.561-.005.006zm5.832-18.179V99.182h-2v69.648zm-1-68.648h18.102v-2h-18.102zm17.102-1V217h2V99.182zm1 116.818h-18.102v2h18.102zm-17.102 1v-19.943h-2V217zm-1-20.943h-1.227v2h1.227zm-2.135.581c-2.683 5.812-6.86 10.77-12.563 14.871l1.168 1.624c5.957-4.285 10.371-9.504 13.211-15.657zm-12.558 14.868c-5.623 3.995-12.77 6.028-21.512 6.028v2c9.054 0 16.634-2.109 22.671-6.398zm-21.512 6.028c-7.213 0-13.586-1.576-19.146-4.704l-.98 1.743c5.894 3.316 12.612 4.961 20.126 4.961zm-19.14-4.701c-5.537-3.164-9.907-7.917-13.102-14.306l-1.788.895c3.351 6.702 7.981 11.767 13.898 15.148zm-13.1-14.303c-3.184-6.418-4.805-14.563-4.805-24.485h-2c0 10.125 1.652 18.599 5.013 25.374zm-4.805-24.485V99.182h-2v74.863zm-1-73.863h18.102v-2h-18.102zm17.102-1v73.636h2V99.182zm0 73.636c0 8.786 2.463 15.903 7.482 21.242l1.457-1.37c-4.595-4.889-6.939-11.475-6.939-19.872zm7.485 21.246c5.061 5.326 11.517 7.981 19.288 7.981v-2c-7.263 0-13.182-2.458-17.838-7.359zm19.288 7.981c4.676 0 9.403-1.196 14.173-3.555l-.886-1.793c-4.537 2.244-8.963 3.348-13.287 3.348zm14.169-3.553c4.878-2.386 8.946-6.04 12.206-10.929l-1.665-1.109c-3.081 4.622-6.888 8.025-11.419 10.241zm12.201-10.923c3.362-4.962 5.005-11.232 5.005-18.739h-2c0 7.219-1.579 13.069-4.66 17.618zm73.365-127.66h1v-1h-1zm0 157.091v1h1v-1zm-18.102 0h-1v1h1zm0-157.09v-1h-1v1zm17.102 0V217h2V59.91zm1 156.09h-18.102v2h18.102zm-17.102 1V59.91h-2V217zm-1-156.09h18.102v-2h-18.102zm102.496 38.272h1v-1h-1zm0 15.341v1h1v-1zm-61.057 0h-1v1h1zm0-15.341v-1h-1v1zm17.796-28.228v-1h-1v1zm18.102 0h1v-1h-1zm2.225 123.802-.865.501.005.011.007.01zm5.829 5.062-.347.938.013.005.012.004zm12.503.921.158.987.019-.003.019-.004zm3.068-.614.975-.221-.215-.951-.956.191zm3.682 16.261.351.937.817-.307-.193-.85zm-5.139 1.381-.205-.979-.011.003-.011.002zm-23.395-2.531-.413.911.004.001zm-12.119-10.048-.818.575.004.007zm37.505-106.006v15.341h2V99.182zm1 14.341h-61.057v2h61.057zm-60.057 1V99.182h-2v15.341zm-1-14.341h61.057v-2h-61.057zm17.796-28.228h18.102v-2H666.28zm17.102-1V183.25h2V70.955zm0 112.296c0 5.178.745 9.224 2.36 12.007l1.73-1.003c-1.352-2.33-2.09-5.954-2.09-11.004zm2.372 12.028c1.63 2.663 3.738 4.518 6.335 5.478l.694-1.876c-2.107-.778-3.886-2.298-5.324-4.646zm6.36 5.487q3.769 1.281 7.916 1.28v-2q-3.831 0-7.272-1.173zm7.916 1.28c2.022 0 3.716-.103 5.067-.319l-.316-1.975c-1.206.193-2.785.294-4.751.294zm5.105-.326 3.068-.613-.392-1.962-3.068.614zm1.897-1.373 3.682 16.261 1.95-.441-3.682-16.262zm4.306 15.104c-1.158.434-2.814.882-4.993 1.338l.41 1.958c2.218-.465 3.988-.937 5.285-1.423zm-5.015 1.343c-2.098.488-4.802.741-8.134.741v2c3.418 0 6.287-.258 8.587-.793zm-8.134.741c-4.966 0-9.838-1.067-14.625-3.211l-.818 1.825c5.031 2.254 10.181 3.386 15.443 3.386zm-14.622-3.209c-4.691-2.124-8.595-5.357-11.718-9.72l-1.627 1.165c3.32 4.637 7.496 8.103 12.52 10.377zm-11.714-9.713c-3.025-4.295-4.573-9.756-4.573-16.453h-2c0 7.008 1.623 12.899 4.938 17.604zm-4.573-16.453V70.955h-2v117.204zM736.771 217h-1v1h1zm0-117.818v-1h-1v1zm17.489 0h1v-1h-1zm0 17.795h-1v1h1zm1.227 0v1h.698l.241-.654zm11.659-14.19-.542-.84zm28.534-5.14h1v-.904l-.9-.09zm0 18.41-.242.97 1.242.311v-1.281zm-4.218-.691-.165.987.013.002.013.002zm-22.168 3.069.467.884.004-.002zm-10.585 9.818-.849-.528-.002.003zM754.874 217v1h1v-1zm-17.103 0V99.182h-2V217zm-1-116.818h17.489v-2h-17.489zm16.489-1v17.795h2V99.182zm1 18.795h1.227v-2h-1.227zm2.166-.654c2.066-5.61 5.805-10.173 11.263-13.696l-1.085-1.68c-5.792 3.738-9.827 8.635-12.055 14.685zm11.263-13.696c5.454-3.52 11.605-5.286 18.48-5.286v-2c-7.238 0-13.769 1.865-19.565 5.606zm18.48-5.286q1.977 0 4.96.076l.051-2q-2.999-.076-5.011-.076zm4.96.076c1.988.051 3.467.127 4.452.226l.199-1.99c-1.061-.106-2.599-.184-4.6-.235zm3.551-.77v18.41h2v-18.41zm1.243 17.44c-.676-.169-2.139-.406-4.323-.711l-.277 1.981c2.214.309 3.563.532 4.115.67zm-4.297-.707q-3.311-.551-6.991-.55v2q3.53 0 6.662.523zm-6.991-.55c-5.871 0-11.15 1.233-15.812 3.723l.942 1.764c4.338-2.317 9.287-3.487 14.87-3.487zm-15.808 3.721c-4.603 2.433-8.264 5.827-10.967 10.174l1.698 1.056c2.513-4.04 5.908-7.191 10.203-9.462zm-10.969 10.177c-2.663 4.314-3.984 9.229-3.984 14.715h2c0-5.15 1.235-9.695 3.686-13.665zm-3.984 14.715V217h2v-74.557zm1 73.557h-18.103v2h18.103zm78.545-4.139-.536.844.003.002zm-18.716-21.247-.898.439.002.004zm0-64.049-.897-.441-.002.004zm18.716-21.324-.533-.845-.003.001zm55.918 0-.536.845.002.001zm18.716 21.324-.9.437.002.005zm0 64.049-.897-.444-.002.005zm-18.716 21.247-.534-.846-.002.001zm-7.978-14.881-.622-.783zm11.583-16.338.937.348zm0-43.952.938-.345zm-11.583-16.491.627-.78zm-39.886 0-.627-.78zm-11.582 16.491-.939-.345zm0 43.952-.938.348zm11.582 16.338.622-.783zm19.943 21.475c-10.471 0-19.614-2.49-27.464-7.44l-1.066 1.692c8.206 5.175 17.729 7.748 28.53 7.748zm-27.461-7.439c-7.811-4.957-13.93-11.895-18.355-20.846l-1.793.887c4.575 9.254 10.933 16.48 19.076 21.648zm-18.353-20.841c-4.37-8.941-6.572-19.422-6.572-31.47h-2c0 12.292 2.247 23.084 6.775 32.348zm-6.572-31.47c0-12.152 2.202-22.711 6.573-31.703l-1.799-.874c-4.528 9.315-6.774 20.183-6.774 32.577zm6.571-31.698c4.425-9.002 10.544-15.965 18.354-20.921l-1.072-1.689c-8.145 5.169-14.503 12.422-19.077 21.727zm18.351-20.92c7.85-4.95 16.993-7.44 27.464-7.44v-2c-10.801 0-20.324 2.574-28.53 7.749zm27.464-7.44c10.471 0 19.587 2.49 27.385 7.439l1.071-1.689c-8.157-5.176-17.654-7.75-28.456-7.75zm27.387 7.44c7.859 4.956 13.977 11.917 18.35 20.915l1.799-.874c-4.524-9.308-10.884-16.563-19.082-21.732zm18.352 20.92c4.42 8.991 6.648 19.547 6.648 31.698h2c0-12.395-2.273-23.265-6.853-32.581zm6.648 31.698c0 12.046-2.227 22.526-6.647 31.465l1.793.887c4.58-9.265 6.854-20.058 6.854-32.352zm-6.649 31.47c-4.373 8.947-10.49 15.883-18.351 20.84l1.067 1.692c8.196-5.169 14.556-12.397 19.081-21.654zm-18.353 20.841c-7.798 4.949-16.914 7.439-27.385 7.439v2c10.802 0 20.299-2.573 28.456-7.75zm-27.385-6.823c8.256 0 15.137-2.119 20.565-6.43l-1.244-1.566c-5.003 3.974-11.417 5.996-19.321 5.996zm20.565-6.43c5.371-4.265 9.334-9.866 11.898-16.773l-1.875-.696c-2.447 6.593-6.205 11.884-11.267 15.903zm11.898-16.773c2.551-6.871 3.821-14.303 3.821-22.285h-2c0 7.767-1.235 14.96-3.696 21.589zm3.821-22.285c0-7.983-1.27-15.439-3.82-22.36l-1.877.691c2.462 6.681 3.697 13.901 3.697 21.669zm-3.82-22.36c-2.563-6.957-6.525-12.609-11.894-16.926l-1.253 1.559c5.063 4.07 8.822 9.412 11.27 16.058zm-11.894-16.926c-5.428-4.363-12.311-6.51-20.57-6.51v2c7.901 0 14.313 2.047 19.317 6.069zm-20.57-6.51c-8.258 0-15.141 2.147-20.57 6.51l1.254 1.559c5.003-4.022 11.416-6.069 19.316-6.069zm-20.57 6.51c-5.368 4.317-9.331 9.969-11.894 16.926l1.877.691c2.448-6.646 6.208-11.988 11.271-16.058zm-11.894 16.926c-2.55 6.921-3.82 14.377-3.82 22.36h2c0-7.768 1.235-14.988 3.697-21.669zm-3.82 22.36c0 7.982 1.27 15.414 3.821 22.285l1.875-.696c-2.461-6.629-3.696-13.822-3.696-21.589zm3.821 22.285c2.564 6.907 6.528 12.508 11.898 16.773l1.244-1.566c-5.062-4.019-8.819-9.31-11.267-15.903zm11.898 16.773c5.428 4.311 12.309 6.43 20.565 6.43v-2c-7.903 0-14.317-2.022-19.321-5.996zM960.538 217v1h1v-1zm-18.103 0h-1v1h1zm0-117.818v-1h-1v1zm17.489 0h1v-1h-1zm0 18.409h-1v1h1zm1.534 0v1h.64l.268-.581zm12.58-14.421.542.841.005-.004zm42.722-.613-.48.877.01.003zm13.96 14.727-.89.45v.003zm4.99 99.716v1h1v-1zm-18.1 0h-1v1h1zm-7.21-95.267-.74.678v.003zm-35.288-4.065-.483-.876-.004.002zm-10.662 10.968-.879-.477zm-4.912 17.489V217h2v-70.875zm1 69.875h-18.103v2h18.103zm-17.103 1V99.182h-2V217zm-1-116.818h17.489v-2h-17.489zm16.489-1v18.409h2v-18.41zm1 19.409h1.534v-2h-1.534zm2.442-.581c2.681-5.808 6.746-10.47 12.214-13.999l-1.085-1.681c-5.781 3.732-10.103 8.684-12.945 14.842zm12.219-14.003c5.418-3.546 12.472-5.36 21.237-5.36v-2c-9.031 0-16.499 1.869-22.332 5.687zm21.237-5.36c7.838 0 14.648 1.608 20.458 4.787l.96-1.755c-6.15-3.365-13.3-5.031-21.418-5.031zm20.468 4.79c5.78 3.116 10.3 7.867 13.54 14.297l1.79-.9c-3.41-6.763-8.2-11.83-14.38-15.158zm13.54 14.3c3.23 6.363 4.88 14.479 4.88 24.399h2c0-10.125-1.68-18.577-5.1-25.305zm4.88 24.399V217h2v-74.864zm1 73.864h-18.1v2h18.1zm-17.1 1v-73.636h-2V217zm0-73.636c0-9.428-2.46-16.911-7.48-22.312l-1.47 1.362c4.59 4.928 6.95 11.866 6.95 20.95zm-7.48-22.309c-5.03-5.459-11.914-8.146-20.524-8.146v2c8.162 0 14.474 2.529 19.054 7.502zm-20.524-8.146c-5.928 0-11.262 1.287-15.977 3.883l.965 1.752c4.387-2.416 9.383-3.635 15.012-3.635zm-15.981 3.885c-4.676 2.604-8.362 6.403-11.054 11.365l1.758.954c2.523-4.651 5.945-8.164 10.269-10.572zm-11.054 11.365c-2.705 4.986-4.033 10.989-4.033 17.966h2c0-6.727 1.28-12.384 3.791-17.012z" mask="url(#a)"/></svg>